<?xml version="1.0" encoding="utf-8" standalone="no"?>
<!DOCTYPE svg PUBLIC "-//W3C//DTD SVG 1.1//EN"
  "http://www.w3.org/Graphics/SVG/1.1/DTD/svg11.dtd">
<!-- Created with matplotlib (http://matplotlib.org/) -->
<svg height="216pt" version="1.1" viewBox="0 0 1728 216" width="1728pt" xmlns="http://www.w3.org/2000/svg" xmlns:xlink="http://www.w3.org/1999/xlink">
 <defs>
  <style type="text/css">
*{stroke-linecap:butt;stroke-linejoin:round;stroke-miterlimit:100000;}
  </style>
 </defs>
 <g id="figure_1">
  <g id="patch_1">
   <path d="M 0 216 
L 1728 216 
L 1728 0 
L 0 0 
z
" style="fill:#ffffff;"/>
  </g>
  <g id="axes_1">
   <g id="patch_2">
    <path d="M 216 194.4 
L 407.314286 194.4 
L 407.314286 21.6 
L 216 21.6 
z
" style="fill:#eaeaf2;"/>
   </g>
   <g id="matplotlib.axis_1">
    <g id="xtick_1">
     <g id="line2d_1">
      <path clip-path="url(#p2add480031)" d="M 216 194.4 
L 216 21.6 
" style="fill:none;stroke:#ffffff;stroke-linecap:round;"/>
     </g>
     <g id="line2d_2">
      <defs>
       <path d="M 0 0 
L 0 3 
" id="me142d4c474" style="stroke:#808080;"/>
      </defs>
      <g>
       <use style="fill:#808080;stroke:#808080;" x="216.0" xlink:href="#me142d4c474" y="194.4"/>
      </g>
     </g>
     <g id="text_1">
      <!-- 0.72 -->
      <defs>
       <path d="M 50.34375 8.453125 
L 50.34375 0 
L 3.03125 0 
Q 2.9375 3.171875 4.046875 6.109375 
Q 5.859375 10.9375 9.828125 15.625 
Q 13.8125 20.3125 21.34375 26.46875 
Q 33.015625 36.03125 37.109375 41.625 
Q 41.21875 47.21875 41.21875 52.203125 
Q 41.21875 57.421875 37.46875 61 
Q 33.734375 64.59375 27.734375 64.59375 
Q 21.390625 64.59375 17.578125 60.78125 
Q 13.765625 56.984375 13.71875 50.25 
L 4.6875 51.171875 
Q 5.609375 61.28125 11.65625 66.578125 
Q 17.71875 71.875 27.9375 71.875 
Q 38.234375 71.875 44.234375 66.15625 
Q 50.25 60.453125 50.25 52 
Q 50.25 47.703125 48.484375 43.546875 
Q 46.734375 39.40625 42.65625 34.8125 
Q 38.578125 30.21875 29.109375 22.21875 
Q 21.1875 15.578125 18.9375 13.203125 
Q 16.703125 10.84375 15.234375 8.453125 
z
" id="ArialMT-32"/>
       <path d="M 4.15625 35.296875 
Q 4.15625 48 6.765625 55.734375 
Q 9.375 63.484375 14.515625 67.671875 
Q 19.671875 71.875 27.484375 71.875 
Q 33.25 71.875 37.59375 69.546875 
Q 41.9375 67.234375 44.765625 62.859375 
Q 47.609375 58.5 49.21875 52.21875 
Q 50.828125 45.953125 50.828125 35.296875 
Q 50.828125 22.703125 48.234375 14.96875 
Q 45.65625 7.234375 40.5 3 
Q 35.359375 -1.21875 27.484375 -1.21875 
Q 17.140625 -1.21875 11.234375 6.203125 
Q 4.15625 15.140625 4.15625 35.296875 
M 13.1875 35.296875 
Q 13.1875 17.671875 17.3125 11.828125 
Q 21.4375 6 27.484375 6 
Q 33.546875 6 37.671875 11.859375 
Q 41.796875 17.71875 41.796875 35.296875 
Q 41.796875 52.984375 37.671875 58.78125 
Q 33.546875 64.59375 27.390625 64.59375 
Q 21.34375 64.59375 17.71875 59.46875 
Q 13.1875 52.9375 13.1875 35.296875 
" id="ArialMT-30"/>
       <path d="M 4.734375 62.203125 
L 4.734375 70.65625 
L 51.078125 70.65625 
L 51.078125 63.8125 
Q 44.234375 56.546875 37.515625 44.484375 
Q 30.8125 32.421875 27.15625 19.671875 
Q 24.515625 10.6875 23.78125 0 
L 14.75 0 
Q 14.890625 8.453125 18.0625 20.40625 
Q 21.234375 32.375 27.171875 43.484375 
Q 33.109375 54.59375 39.796875 62.203125 
z
" id="ArialMT-37"/>
       <path d="M 9.078125 0 
L 9.078125 10.015625 
L 19.09375 10.015625 
L 19.09375 0 
z
" id="ArialMT-2e"/>
      </defs>
      <g style="fill:#262626;" transform="translate(206.26953125 208.5578125)scale(0.1 -0.1)">
       <use xlink:href="#ArialMT-30"/>
       <use x="55.615234375" xlink:href="#ArialMT-2e"/>
       <use x="83.3984375" xlink:href="#ArialMT-37"/>
       <use x="139.013671875" xlink:href="#ArialMT-32"/>
      </g>
     </g>
    </g>
    <g id="xtick_2">
     <g id="line2d_3">
      <path clip-path="url(#p2add480031)" d="M 292.525714 194.4 
L 292.525714 21.6 
" style="fill:none;stroke:#ffffff;stroke-linecap:round;"/>
     </g>
     <g id="line2d_4">
      <g>
       <use style="fill:#808080;stroke:#808080;" x="292.525714286" xlink:href="#me142d4c474" y="194.4"/>
      </g>
     </g>
     <g id="text_2">
      <!-- 0.74 -->
      <defs>
       <path d="M 32.328125 0 
L 32.328125 17.140625 
L 1.265625 17.140625 
L 1.265625 25.203125 
L 33.9375 71.578125 
L 41.109375 71.578125 
L 41.109375 25.203125 
L 50.78125 25.203125 
L 50.78125 17.140625 
L 41.109375 17.140625 
L 41.109375 0 
z
M 32.328125 25.203125 
L 32.328125 57.46875 
L 9.90625 25.203125 
z
" id="ArialMT-34"/>
      </defs>
      <g style="fill:#262626;" transform="translate(282.795245536 208.5578125)scale(0.1 -0.1)">
       <use xlink:href="#ArialMT-30"/>
       <use x="55.615234375" xlink:href="#ArialMT-2e"/>
       <use x="83.3984375" xlink:href="#ArialMT-37"/>
       <use x="139.013671875" xlink:href="#ArialMT-34"/>
      </g>
     </g>
    </g>
    <g id="xtick_3">
     <g id="line2d_5">
      <path clip-path="url(#p2add480031)" d="M 369.051429 194.4 
L 369.051429 21.6 
" style="fill:none;stroke:#ffffff;stroke-linecap:round;"/>
     </g>
     <g id="line2d_6">
      <g>
       <use style="fill:#808080;stroke:#808080;" x="369.051428571" xlink:href="#me142d4c474" y="194.4"/>
      </g>
     </g>
     <g id="text_3">
      <!-- 0.76 -->
      <defs>
       <path d="M 49.75 54.046875 
L 41.015625 53.375 
Q 39.84375 58.546875 37.703125 60.890625 
Q 34.125 64.65625 28.90625 64.65625 
Q 24.703125 64.65625 21.53125 62.3125 
Q 17.390625 59.28125 14.984375 53.46875 
Q 12.59375 47.65625 12.5 36.921875 
Q 15.671875 41.75 20.265625 44.09375 
Q 24.859375 46.4375 29.890625 46.4375 
Q 38.671875 46.4375 44.84375 39.96875 
Q 51.03125 33.5 51.03125 23.25 
Q 51.03125 16.5 48.125 10.71875 
Q 45.21875 4.9375 40.140625 1.859375 
Q 35.0625 -1.21875 28.609375 -1.21875 
Q 17.625 -1.21875 10.6875 6.859375 
Q 3.765625 14.9375 3.765625 33.5 
Q 3.765625 54.25 11.421875 63.671875 
Q 18.109375 71.875 29.4375 71.875 
Q 37.890625 71.875 43.28125 67.140625 
Q 48.6875 62.40625 49.75 54.046875 
M 13.875 23.1875 
Q 13.875 18.65625 15.796875 14.5 
Q 17.71875 10.359375 21.1875 8.171875 
Q 24.65625 6 28.46875 6 
Q 34.03125 6 38.03125 10.484375 
Q 42.046875 14.984375 42.046875 22.703125 
Q 42.046875 30.125 38.078125 34.390625 
Q 34.125 38.671875 28.125 38.671875 
Q 22.171875 38.671875 18.015625 34.390625 
Q 13.875 30.125 13.875 23.1875 
" id="ArialMT-36"/>
      </defs>
      <g style="fill:#262626;" transform="translate(359.320959821 208.5578125)scale(0.1 -0.1)">
       <use xlink:href="#ArialMT-30"/>
       <use x="55.615234375" xlink:href="#ArialMT-2e"/>
       <use x="83.3984375" xlink:href="#ArialMT-37"/>
       <use x="139.013671875" xlink:href="#ArialMT-36"/>
      </g>
     </g>
    </g>
   </g>
   <g id="matplotlib.axis_2">
    <g id="ytick_1">
     <g id="line2d_7">
      <path clip-path="url(#p2add480031)" d="M 216 194.4 
L 407.314286 194.4 
" style="fill:none;stroke:#ffffff;stroke-linecap:round;"/>
     </g>
    </g>
    <g id="ytick_2">
     <g id="line2d_8">
      <path clip-path="url(#p2add480031)" d="M 216 21.6 
L 407.314286 21.6 
" style="fill:none;stroke:#ffffff;stroke-linecap:round;"/>
     </g>
    </g>
   </g>
   <g id="patch_3">
    <path clip-path="url(#p2add480031)" d="M 252.438861 194.4 
L 256.447658 194.4 
L 256.447658 194.0544 
L 252.438861 194.0544 
z
" style="fill:#87ceeb;stroke:#ffffff;stroke-linejoin:miter;stroke-width:0.3;"/>
   </g>
   <g id="patch_4">
    <path clip-path="url(#p2add480031)" d="M 256.447658 194.4 
L 260.456454 194.4 
L 260.456454 194.4 
L 256.447658 194.4 
z
" style="fill:#87ceeb;stroke:#ffffff;stroke-linejoin:miter;stroke-width:0.3;"/>
   </g>
   <g id="patch_5">
    <path clip-path="url(#p2add480031)" d="M 260.456454 194.4 
L 264.465251 194.4 
L 264.465251 193.3632 
L 260.456454 193.3632 
z
" style="fill:#87ceeb;stroke:#ffffff;stroke-linejoin:miter;stroke-width:0.3;"/>
   </g>
   <g id="patch_6">
    <path clip-path="url(#p2add480031)" d="M 264.465251 194.4 
L 268.474047 194.4 
L 268.474047 190.5984 
L 264.465251 190.5984 
z
" style="fill:#87ceeb;stroke:#ffffff;stroke-linejoin:miter;stroke-width:0.3;"/>
   </g>
   <g id="patch_7">
    <path clip-path="url(#p2add480031)" d="M 268.474047 194.4 
L 272.482844 194.4 
L 272.482844 191.6352 
L 268.474047 191.6352 
z
" style="fill:#87ceeb;stroke:#ffffff;stroke-linejoin:miter;stroke-width:0.3;"/>
   </g>
   <g id="patch_8">
    <path clip-path="url(#p2add480031)" d="M 272.482844 194.4 
L 276.49164 194.4 
L 276.49164 188.5248 
L 272.482844 188.5248 
z
" style="fill:#87ceeb;stroke:#ffffff;stroke-linejoin:miter;stroke-width:0.3;"/>
   </g>
   <g id="patch_9">
    <path clip-path="url(#p2add480031)" d="M 276.49164 194.4 
L 280.500437 194.4 
L 280.500437 179.8848 
L 276.49164 179.8848 
z
" style="fill:#87ceeb;stroke:#ffffff;stroke-linejoin:miter;stroke-width:0.3;"/>
   </g>
   <g id="patch_10">
    <path clip-path="url(#p2add480031)" d="M 280.500437 194.4 
L 284.509233 194.4 
L 284.509233 177.4656 
L 280.500437 177.4656 
z
" style="fill:#87ceeb;stroke:#ffffff;stroke-linejoin:miter;stroke-width:0.3;"/>
   </g>
   <g id="patch_11">
    <path clip-path="url(#p2add480031)" d="M 284.509233 194.4 
L 288.51803 194.4 
L 288.51803 163.296 
L 284.509233 163.296 
z
" style="fill:#87ceeb;stroke:#ffffff;stroke-linejoin:miter;stroke-width:0.3;"/>
   </g>
   <g id="patch_12">
    <path clip-path="url(#p2add480031)" d="M 288.51803 194.4 
L 292.526826 194.4 
L 292.526826 141.8688 
L 288.51803 141.8688 
z
" style="fill:#87ceeb;stroke:#ffffff;stroke-linejoin:miter;stroke-width:0.3;"/>
   </g>
   <g id="patch_13">
    <path clip-path="url(#p2add480031)" d="M 292.526826 194.4 
L 296.535623 194.4 
L 296.535623 108.6912 
L 292.526826 108.6912 
z
" style="fill:#87ceeb;stroke:#ffffff;stroke-linejoin:miter;stroke-width:0.3;"/>
   </g>
   <g id="patch_14">
    <path clip-path="url(#p2add480031)" d="M 296.535623 194.4 
L 300.544419 194.4 
L 300.544419 92.1024 
L 296.535623 92.1024 
z
" style="fill:#87ceeb;stroke:#ffffff;stroke-linejoin:miter;stroke-width:0.3;"/>
   </g>
   <g id="patch_15">
    <path clip-path="url(#p2add480031)" d="M 300.544419 194.4 
L 304.553216 194.4 
L 304.553216 78.9696 
L 300.544419 78.9696 
z
" style="fill:#87ceeb;stroke:#ffffff;stroke-linejoin:miter;stroke-width:0.3;"/>
   </g>
   <g id="patch_16">
    <path clip-path="url(#p2add480031)" d="M 304.553216 194.4 
L 308.562012 194.4 
L 308.562012 48.2112 
L 304.553216 48.2112 
z
" style="fill:#87ceeb;stroke:#ffffff;stroke-linejoin:miter;stroke-width:0.3;"/>
   </g>
   <g id="patch_17">
    <path clip-path="url(#p2add480031)" d="M 308.562012 194.4 
L 312.570809 194.4 
L 312.570809 37.152 
L 308.562012 37.152 
z
" style="fill:#87ceeb;stroke:#ffffff;stroke-linejoin:miter;stroke-width:0.3;"/>
   </g>
   <g id="patch_18">
    <path clip-path="url(#p2add480031)" d="M 312.570809 194.4 
L 316.579605 194.4 
L 316.579605 44.4096 
L 312.570809 44.4096 
z
" style="fill:#87ceeb;stroke:#ffffff;stroke-linejoin:miter;stroke-width:0.3;"/>
   </g>
   <g id="patch_19">
    <path clip-path="url(#p2add480031)" d="M 316.579605 194.4 
L 320.588402 194.4 
L 320.588402 67.5648 
L 316.579605 67.5648 
z
" style="fill:#87ceeb;stroke:#ffffff;stroke-linejoin:miter;stroke-width:0.3;"/>
   </g>
   <g id="patch_20">
    <path clip-path="url(#p2add480031)" d="M 320.588402 194.4 
L 324.597198 194.4 
L 324.597198 84.1536 
L 320.588402 84.1536 
z
" style="fill:#87ceeb;stroke:#ffffff;stroke-linejoin:miter;stroke-width:0.3;"/>
   </g>
   <g id="patch_21">
    <path clip-path="url(#p2add480031)" d="M 324.597198 194.4 
L 328.605995 194.4 
L 328.605995 103.1616 
L 324.597198 103.1616 
z
" style="fill:#87ceeb;stroke:#ffffff;stroke-linejoin:miter;stroke-width:0.3;"/>
   </g>
   <g id="patch_22">
    <path clip-path="url(#p2add480031)" d="M 328.605995 194.4 
L 332.614791 194.4 
L 332.614791 123.552 
L 328.605995 123.552 
z
" style="fill:#87ceeb;stroke:#ffffff;stroke-linejoin:miter;stroke-width:0.3;"/>
   </g>
   <g id="patch_23">
    <path clip-path="url(#p2add480031)" d="M 332.614791 194.4 
L 336.623588 194.4 
L 336.623588 150.1632 
L 332.614791 150.1632 
z
" style="fill:#87ceeb;stroke:#ffffff;stroke-linejoin:miter;stroke-width:0.3;"/>
   </g>
   <g id="patch_24">
    <path clip-path="url(#p2add480031)" d="M 336.623588 194.4 
L 340.632384 194.4 
L 340.632384 166.752 
L 336.623588 166.752 
z
" style="fill:#87ceeb;stroke:#ffffff;stroke-linejoin:miter;stroke-width:0.3;"/>
   </g>
   <g id="patch_25">
    <path clip-path="url(#p2add480031)" d="M 340.632384 194.4 
L 344.641181 194.4 
L 344.641181 181.9584 
L 340.632384 181.9584 
z
" style="fill:#87ceeb;stroke:#ffffff;stroke-linejoin:miter;stroke-width:0.3;"/>
   </g>
   <g id="patch_26">
    <path clip-path="url(#p2add480031)" d="M 344.641181 194.4 
L 348.649977 194.4 
L 348.649977 186.7968 
L 344.641181 186.7968 
z
" style="fill:#87ceeb;stroke:#ffffff;stroke-linejoin:miter;stroke-width:0.3;"/>
   </g>
   <g id="patch_27">
    <path clip-path="url(#p2add480031)" d="M 348.649977 194.4 
L 352.658774 194.4 
L 352.658774 190.5984 
L 348.649977 190.5984 
z
" style="fill:#87ceeb;stroke:#ffffff;stroke-linejoin:miter;stroke-width:0.3;"/>
   </g>
   <g id="patch_28">
    <path clip-path="url(#p2add480031)" d="M 352.658774 194.4 
L 356.66757 194.4 
L 356.66757 193.7088 
L 352.658774 193.7088 
z
" style="fill:#87ceeb;stroke:#ffffff;stroke-linejoin:miter;stroke-width:0.3;"/>
   </g>
   <g id="patch_29">
    <path clip-path="url(#p2add480031)" d="M 356.66757 194.4 
L 360.676367 194.4 
L 360.676367 194.0544 
L 356.66757 194.0544 
z
" style="fill:#87ceeb;stroke:#ffffff;stroke-linejoin:miter;stroke-width:0.3;"/>
   </g>
   <g id="patch_30">
    <path clip-path="url(#p2add480031)" d="M 360.676367 194.4 
L 364.685163 194.4 
L 364.685163 194.0544 
L 360.676367 194.0544 
z
" style="fill:#87ceeb;stroke:#ffffff;stroke-linejoin:miter;stroke-width:0.3;"/>
   </g>
   <g id="patch_31">
    <path clip-path="url(#p2add480031)" d="M 364.685163 194.4 
L 368.69396 194.4 
L 368.69396 194.4 
L 364.685163 194.4 
z
" style="fill:#87ceeb;stroke:#ffffff;stroke-linejoin:miter;stroke-width:0.3;"/>
   </g>
   <g id="patch_32">
    <path clip-path="url(#p2add480031)" d="M 368.69396 194.4 
L 372.702756 194.4 
L 372.702756 194.0544 
L 368.69396 194.0544 
z
" style="fill:#87ceeb;stroke:#ffffff;stroke-linejoin:miter;stroke-width:0.3;"/>
   </g>
   <g id="line2d_9">
    <path clip-path="url(#p2add480031)" d="M 281.891977 190.944 
L 338.288122 190.944 
" style="fill:none;stroke:#000000;stroke-linecap:round;stroke-width:4.0;"/>
   </g>
   <g id="patch_33">
    <path d="M 216 194.4 
L 407.314286 194.4 
" style="fill:none;"/>
   </g>
   <g id="text_4">
    <!-- 0.737 -->
    <defs>
     <path d="M 4.203125 18.890625 
L 12.984375 20.0625 
Q 14.5 12.59375 18.140625 9.296875 
Q 21.78125 6 27 6 
Q 33.203125 6 37.46875 10.296875 
Q 41.75 14.59375 41.75 20.953125 
Q 41.75 27 37.796875 30.921875 
Q 33.84375 34.859375 27.734375 34.859375 
Q 25.25 34.859375 21.53125 33.890625 
L 22.515625 41.609375 
Q 23.390625 41.5 23.921875 41.5 
Q 29.546875 41.5 34.03125 44.421875 
Q 38.53125 47.359375 38.53125 53.46875 
Q 38.53125 58.296875 35.25 61.46875 
Q 31.984375 64.65625 26.8125 64.65625 
Q 21.6875 64.65625 18.265625 61.421875 
Q 14.84375 58.203125 13.875 51.765625 
L 5.078125 53.328125 
Q 6.6875 62.15625 12.390625 67.015625 
Q 18.109375 71.875 26.609375 71.875 
Q 32.46875 71.875 37.390625 69.359375 
Q 42.328125 66.84375 44.9375 62.5 
Q 47.5625 58.15625 47.5625 53.265625 
Q 47.5625 48.640625 45.0625 44.828125 
Q 42.578125 41.015625 37.703125 38.765625 
Q 44.046875 37.3125 47.5625 32.6875 
Q 51.078125 28.078125 51.078125 21.140625 
Q 51.078125 11.765625 44.234375 5.25 
Q 37.40625 -1.265625 26.953125 -1.265625 
Q 17.53125 -1.265625 11.296875 4.34375 
Q 5.078125 9.96875 4.203125 18.890625 
" id="ArialMT-33"/>
    </defs>
    <g style="fill:#262626;" transform="translate(261.874477466 182.304)scale(0.16 -0.16)">
     <use xlink:href="#ArialMT-30"/>
     <use x="55.615234375" xlink:href="#ArialMT-2e"/>
     <use x="83.3984375" xlink:href="#ArialMT-37"/>
     <use x="139.013671875" xlink:href="#ArialMT-33"/>
     <use x="194.62890625" xlink:href="#ArialMT-37"/>
    </g>
   </g>
   <g id="text_5">
    <!-- 0.752 -->
    <defs>
     <path d="M 4.15625 18.75 
L 13.375 19.53125 
Q 14.40625 12.796875 18.140625 9.390625 
Q 21.875 6 27.15625 6 
Q 33.5 6 37.890625 10.78125 
Q 42.28125 15.578125 42.28125 23.484375 
Q 42.28125 31 38.0625 35.34375 
Q 33.84375 39.703125 27 39.703125 
Q 22.75 39.703125 19.328125 37.765625 
Q 15.921875 35.84375 13.96875 32.765625 
L 5.71875 33.84375 
L 12.640625 70.609375 
L 48.25 70.609375 
L 48.25 62.203125 
L 19.671875 62.203125 
L 15.828125 42.96875 
Q 22.265625 47.46875 29.34375 47.46875 
Q 38.71875 47.46875 45.15625 40.96875 
Q 51.609375 34.46875 51.609375 24.265625 
Q 51.609375 14.546875 45.953125 7.46875 
Q 39.0625 -1.21875 27.15625 -1.21875 
Q 17.390625 -1.21875 11.203125 4.25 
Q 5.03125 9.71875 4.15625 18.75 
" id="ArialMT-35"/>
    </defs>
    <g style="fill:#262626;" transform="translate(318.270621981 182.304)scale(0.16 -0.16)">
     <use xlink:href="#ArialMT-30"/>
     <use x="55.615234375" xlink:href="#ArialMT-2e"/>
     <use x="83.3984375" xlink:href="#ArialMT-37"/>
     <use x="139.013671875" xlink:href="#ArialMT-35"/>
     <use x="194.62890625" xlink:href="#ArialMT-32"/>
    </g>
   </g>
   <g id="text_6">
    <!-- 95% HPD -->
    <defs>
     <path d="M 5.8125 54.390625 
Q 5.8125 62.0625 9.671875 67.421875 
Q 13.53125 72.796875 20.84375 72.796875 
Q 27.59375 72.796875 32 67.984375 
Q 36.421875 63.1875 36.421875 53.859375 
Q 36.421875 44.78125 31.953125 39.875 
Q 27.484375 34.96875 20.953125 34.96875 
Q 14.453125 34.96875 10.125 39.796875 
Q 5.8125 44.625 5.8125 54.390625 
M 21.09375 66.75 
Q 17.828125 66.75 15.65625 63.90625 
Q 13.484375 61.078125 13.484375 53.515625 
Q 13.484375 46.625 15.671875 43.8125 
Q 17.875 41.015625 21.09375 41.015625 
Q 24.421875 41.015625 26.59375 43.84375 
Q 28.765625 46.6875 28.765625 54.203125 
Q 28.765625 61.140625 26.5625 63.9375 
Q 24.359375 66.75 21.09375 66.75 
M 21.140625 -2.640625 
L 60.296875 72.796875 
L 67.4375 72.796875 
L 28.421875 -2.640625 
z
M 52.09375 16.796875 
Q 52.09375 24.515625 55.953125 29.859375 
Q 59.8125 35.203125 67.1875 35.203125 
Q 73.921875 35.203125 78.34375 30.390625 
Q 82.765625 25.59375 82.765625 16.265625 
Q 82.765625 7.171875 78.296875 2.265625 
Q 73.828125 -2.640625 67.234375 -2.640625 
Q 60.75 -2.640625 56.421875 2.21875 
Q 52.09375 7.078125 52.09375 16.796875 
M 67.4375 29.15625 
Q 64.109375 29.15625 61.9375 26.3125 
Q 59.765625 23.484375 59.765625 15.921875 
Q 59.765625 9.078125 61.953125 6.25 
Q 64.15625 3.421875 67.390625 3.421875 
Q 70.75 3.421875 72.921875 6.25 
Q 75.09375 9.078125 75.09375 16.609375 
Q 75.09375 23.53125 72.890625 26.34375 
Q 70.703125 29.15625 67.4375 29.15625 
" id="ArialMT-25"/>
     <path d="M 7.71875 0 
L 7.71875 71.578125 
L 34.71875 71.578125 
Q 41.84375 71.578125 45.609375 70.90625 
Q 50.875 70.015625 54.4375 67.546875 
Q 58.015625 65.09375 60.1875 60.640625 
Q 62.359375 56.203125 62.359375 50.875 
Q 62.359375 41.75 56.546875 35.421875 
Q 50.734375 29.109375 35.546875 29.109375 
L 17.1875 29.109375 
L 17.1875 0 
z
M 17.1875 37.546875 
L 35.6875 37.546875 
Q 44.875 37.546875 48.734375 40.96875 
Q 52.59375 44.390625 52.59375 50.59375 
Q 52.59375 55.078125 50.3125 58.265625 
Q 48.046875 61.46875 44.34375 62.5 
Q 41.9375 63.140625 35.5 63.140625 
L 17.1875 63.140625 
z
" id="ArialMT-50"/>
     <path d="M 8.015625 0 
L 8.015625 71.578125 
L 17.484375 71.578125 
L 17.484375 42.1875 
L 54.6875 42.1875 
L 54.6875 71.578125 
L 64.15625 71.578125 
L 64.15625 0 
L 54.6875 0 
L 54.6875 33.734375 
L 17.484375 33.734375 
L 17.484375 0 
z
" id="ArialMT-48"/>
     <path d="M 7.71875 0 
L 7.71875 71.578125 
L 32.375 71.578125 
Q 40.71875 71.578125 45.125 70.5625 
Q 51.265625 69.140625 55.609375 65.4375 
Q 61.28125 60.640625 64.078125 53.1875 
Q 66.890625 45.75 66.890625 36.1875 
Q 66.890625 28.03125 64.984375 21.734375 
Q 63.09375 15.4375 60.109375 11.296875 
Q 57.125 7.171875 53.578125 4.796875 
Q 50.046875 2.4375 45.046875 1.21875 
Q 40.046875 0 33.546875 0 
z
M 17.1875 8.453125 
L 32.46875 8.453125 
Q 39.546875 8.453125 43.578125 9.765625 
Q 47.609375 11.078125 50 13.484375 
Q 53.375 16.84375 55.25 22.53125 
Q 57.125 28.21875 57.125 36.328125 
Q 57.125 47.5625 53.4375 53.59375 
Q 49.75 59.625 44.484375 61.671875 
Q 40.671875 63.140625 32.234375 63.140625 
L 17.1875 63.140625 
z
" id="ArialMT-44"/>
     <path id="ArialMT-20"/>
     <path d="M 5.46875 16.546875 
L 13.921875 17.328125 
Q 14.984375 11.375 18.015625 8.6875 
Q 21.046875 6 25.78125 6 
Q 29.828125 6 32.875 7.859375 
Q 35.9375 9.71875 37.890625 12.8125 
Q 39.84375 15.921875 41.15625 21.1875 
Q 42.484375 26.46875 42.484375 31.9375 
Q 42.484375 32.515625 42.4375 33.6875 
Q 39.796875 29.5 35.234375 26.875 
Q 30.671875 24.265625 25.34375 24.265625 
Q 16.453125 24.265625 10.296875 30.703125 
Q 4.15625 37.15625 4.15625 47.703125 
Q 4.15625 58.59375 10.578125 65.234375 
Q 17 71.875 26.65625 71.875 
Q 33.640625 71.875 39.421875 68.109375 
Q 45.21875 64.359375 48.21875 57.390625 
Q 51.21875 50.4375 51.21875 37.25 
Q 51.21875 23.53125 48.234375 15.40625 
Q 45.265625 7.28125 39.375 3.03125 
Q 33.5 -1.21875 25.59375 -1.21875 
Q 17.1875 -1.21875 11.859375 3.4375 
Q 6.546875 8.109375 5.46875 16.546875 
M 41.453125 48.140625 
Q 41.453125 55.71875 37.421875 60.15625 
Q 33.40625 64.59375 27.734375 64.59375 
Q 21.875 64.59375 17.53125 59.8125 
Q 13.1875 55.03125 13.1875 47.40625 
Q 13.1875 40.578125 17.3125 36.296875 
Q 21.4375 32.03125 27.484375 32.03125 
Q 33.59375 32.03125 37.515625 36.296875 
Q 41.453125 40.578125 41.453125 48.140625 
" id="ArialMT-39"/>
    </defs>
    <g style="fill:#262626;" transform="translate(274.965049723 159.84)scale(0.16 -0.16)">
     <use xlink:href="#ArialMT-39"/>
     <use x="55.615234375" xlink:href="#ArialMT-35"/>
     <use x="111.23046875" xlink:href="#ArialMT-25"/>
     <use x="200.146484375" xlink:href="#ArialMT-20"/>
     <use x="227.9296875" xlink:href="#ArialMT-48"/>
     <use x="300.146484375" xlink:href="#ArialMT-50"/>
     <use x="366.845703125" xlink:href="#ArialMT-44"/>
    </g>
   </g>
   <g id="text_7">
    <!-- mean=0.744 -->
    <defs>
     <path d="M 40.4375 6.390625 
Q 35.546875 2.25 31.03125 0.53125 
Q 26.515625 -1.171875 21.34375 -1.171875 
Q 12.796875 -1.171875 8.203125 3 
Q 3.609375 7.171875 3.609375 13.671875 
Q 3.609375 17.484375 5.34375 20.625 
Q 7.078125 23.78125 9.890625 25.6875 
Q 12.703125 27.59375 16.21875 28.5625 
Q 18.796875 29.25 24.03125 29.890625 
Q 34.671875 31.15625 39.703125 32.90625 
Q 39.75 34.71875 39.75 35.203125 
Q 39.75 40.578125 37.25 42.78125 
Q 33.890625 45.75 27.25 45.75 
Q 21.046875 45.75 18.09375 43.578125 
Q 15.140625 41.40625 13.71875 35.890625 
L 5.125 37.0625 
Q 6.296875 42.578125 8.984375 45.96875 
Q 11.671875 49.359375 16.75 51.1875 
Q 21.828125 53.03125 28.515625 53.03125 
Q 35.15625 53.03125 39.296875 51.46875 
Q 43.453125 49.90625 45.40625 47.53125 
Q 47.359375 45.171875 48.140625 41.546875 
Q 48.578125 39.3125 48.578125 33.453125 
L 48.578125 21.734375 
Q 48.578125 9.46875 49.140625 6.21875 
Q 49.703125 2.984375 51.375 0 
L 42.1875 0 
Q 40.828125 2.734375 40.4375 6.390625 
M 39.703125 26.03125 
Q 34.90625 24.078125 25.34375 22.703125 
Q 19.921875 21.921875 17.671875 20.9375 
Q 15.4375 19.96875 14.203125 18.09375 
Q 12.984375 16.21875 12.984375 13.921875 
Q 12.984375 10.40625 15.640625 8.0625 
Q 18.3125 5.71875 23.4375 5.71875 
Q 28.515625 5.71875 32.46875 7.9375 
Q 36.421875 10.15625 38.28125 14.015625 
Q 39.703125 17 39.703125 22.796875 
z
" id="ArialMT-61"/>
     <path d="M 6.59375 0 
L 6.59375 51.859375 
L 14.5 51.859375 
L 14.5 44.484375 
Q 20.21875 53.03125 31 53.03125 
Q 35.6875 53.03125 39.625 51.34375 
Q 43.5625 49.65625 45.515625 46.921875 
Q 47.46875 44.1875 48.25 40.4375 
Q 48.734375 37.984375 48.734375 31.890625 
L 48.734375 0 
L 39.9375 0 
L 39.9375 31.546875 
Q 39.9375 36.921875 38.90625 39.578125 
Q 37.890625 42.234375 35.28125 43.8125 
Q 32.671875 45.40625 29.15625 45.40625 
Q 23.53125 45.40625 19.453125 41.84375 
Q 15.375 38.28125 15.375 28.328125 
L 15.375 0 
z
" id="ArialMT-6e"/>
     <path d="M 6.59375 0 
L 6.59375 51.859375 
L 14.453125 51.859375 
L 14.453125 44.578125 
Q 16.890625 48.390625 20.9375 50.703125 
Q 25 53.03125 30.171875 53.03125 
Q 35.9375 53.03125 39.625 50.640625 
Q 43.3125 48.25 44.828125 43.953125 
Q 50.984375 53.03125 60.84375 53.03125 
Q 68.5625 53.03125 72.703125 48.75 
Q 76.859375 44.484375 76.859375 35.59375 
L 76.859375 0 
L 68.109375 0 
L 68.109375 32.671875 
Q 68.109375 37.9375 67.25 40.25 
Q 66.40625 42.578125 64.15625 43.984375 
Q 61.921875 45.40625 58.890625 45.40625 
Q 53.421875 45.40625 49.796875 41.765625 
Q 46.1875 38.140625 46.1875 30.125 
L 46.1875 0 
L 37.40625 0 
L 37.40625 33.6875 
Q 37.40625 39.546875 35.25 42.46875 
Q 33.109375 45.40625 28.21875 45.40625 
Q 24.515625 45.40625 21.359375 43.453125 
Q 18.21875 41.5 16.796875 37.734375 
Q 15.375 33.984375 15.375 26.90625 
L 15.375 0 
z
" id="ArialMT-6d"/>
     <path d="M 42.09375 16.703125 
L 51.171875 15.578125 
Q 49.03125 7.625 43.21875 3.21875 
Q 37.40625 -1.171875 28.375 -1.171875 
Q 17 -1.171875 10.328125 5.828125 
Q 3.65625 12.84375 3.65625 25.484375 
Q 3.65625 38.578125 10.390625 45.796875 
Q 17.140625 53.03125 27.875 53.03125 
Q 38.28125 53.03125 44.875 45.953125 
Q 51.46875 38.875 51.46875 26.03125 
Q 51.46875 25.25 51.421875 23.6875 
L 12.75 23.6875 
Q 13.234375 15.140625 17.578125 10.59375 
Q 21.921875 6.0625 28.421875 6.0625 
Q 33.25 6.0625 36.671875 8.59375 
Q 40.09375 11.140625 42.09375 16.703125 
M 13.234375 30.90625 
L 42.1875 30.90625 
Q 41.609375 37.453125 38.875 40.71875 
Q 34.671875 45.796875 27.984375 45.796875 
Q 21.921875 45.796875 17.796875 41.75 
Q 13.671875 37.703125 13.234375 30.90625 
" id="ArialMT-65"/>
     <path d="M 52.828125 42.09375 
L 5.5625 42.09375 
L 5.5625 50.296875 
L 52.828125 50.296875 
z
M 52.828125 20.359375 
L 5.5625 20.359375 
L 5.5625 28.5625 
L 52.828125 28.5625 
z
" id="ArialMT-3d"/>
    </defs>
    <g style="fill:#262626;" transform="translate(264.686427858 56.16)scale(0.16 -0.16)">
     <use xlink:href="#ArialMT-6d"/>
     <use x="83.30078125" xlink:href="#ArialMT-65"/>
     <use x="138.916015625" xlink:href="#ArialMT-61"/>
     <use x="194.53125" xlink:href="#ArialMT-6e"/>
     <use x="250.146484375" xlink:href="#ArialMT-3d"/>
     <use x="308.544921875" xlink:href="#ArialMT-30"/>
     <use x="364.16015625" xlink:href="#ArialMT-2e"/>
     <use x="391.943359375" xlink:href="#ArialMT-37"/>
     <use x="447.55859375" xlink:href="#ArialMT-34"/>
     <use x="503.173828125" xlink:href="#ArialMT-34"/>
    </g>
   </g>
   <g id="text_8">
    <!-- Blind Mean -->
    <defs>
     <path d="M 7.328125 0 
L 7.328125 71.578125 
L 34.1875 71.578125 
Q 42.390625 71.578125 47.34375 69.40625 
Q 52.296875 67.234375 55.09375 62.71875 
Q 57.90625 58.203125 57.90625 53.265625 
Q 57.90625 48.6875 55.421875 44.625 
Q 52.9375 40.578125 47.90625 38.09375 
Q 54.390625 36.1875 57.875 31.59375 
Q 61.375 27 61.375 20.75 
Q 61.375 15.71875 59.25 11.390625 
Q 57.125 7.078125 54 4.734375 
Q 50.875 2.390625 46.15625 1.1875 
Q 41.453125 0 34.625 0 
z
M 16.796875 41.5 
L 32.28125 41.5 
Q 38.578125 41.5 41.3125 42.328125 
Q 44.921875 43.40625 46.75 45.890625 
Q 48.578125 48.390625 48.578125 52.15625 
Q 48.578125 55.71875 46.875 58.421875 
Q 45.171875 61.140625 41.984375 62.140625 
Q 38.8125 63.140625 31.109375 63.140625 
L 16.796875 63.140625 
z
M 16.796875 8.453125 
L 34.625 8.453125 
Q 39.203125 8.453125 41.0625 8.796875 
Q 44.34375 9.375 46.53125 10.734375 
Q 48.734375 12.109375 50.140625 14.71875 
Q 51.5625 17.328125 51.5625 20.75 
Q 51.5625 24.75 49.515625 27.703125 
Q 47.46875 30.671875 43.828125 31.859375 
Q 40.1875 33.0625 33.34375 33.0625 
L 16.796875 33.0625 
z
" id="ArialMT-42"/>
     <path d="M 6.390625 0 
L 6.390625 71.578125 
L 15.1875 71.578125 
L 15.1875 0 
z
" id="ArialMT-6c"/>
     <path d="M 40.234375 0 
L 40.234375 6.546875 
Q 35.296875 -1.171875 25.734375 -1.171875 
Q 19.53125 -1.171875 14.328125 2.25 
Q 9.125 5.671875 6.265625 11.796875 
Q 3.421875 17.921875 3.421875 25.875 
Q 3.421875 33.640625 6 39.96875 
Q 8.59375 46.296875 13.765625 49.65625 
Q 18.953125 53.03125 25.34375 53.03125 
Q 30.03125 53.03125 33.6875 51.046875 
Q 37.359375 49.078125 39.65625 45.90625 
L 39.65625 71.578125 
L 48.390625 71.578125 
L 48.390625 0 
z
M 12.453125 25.875 
Q 12.453125 15.921875 16.640625 10.984375 
Q 20.84375 6.0625 26.5625 6.0625 
Q 32.328125 6.0625 36.34375 10.765625 
Q 40.375 15.484375 40.375 25.140625 
Q 40.375 35.796875 36.265625 40.765625 
Q 32.171875 45.75 26.171875 45.75 
Q 20.3125 45.75 16.375 40.96875 
Q 12.453125 36.1875 12.453125 25.875 
" id="ArialMT-64"/>
     <path d="M 6.640625 61.46875 
L 6.640625 71.578125 
L 15.4375 71.578125 
L 15.4375 61.46875 
z
M 6.640625 0 
L 6.640625 51.859375 
L 15.4375 51.859375 
L 15.4375 0 
z
" id="ArialMT-69"/>
     <path d="M 7.421875 0 
L 7.421875 71.578125 
L 21.6875 71.578125 
L 38.625 20.90625 
Q 40.96875 13.8125 42.046875 10.296875 
Q 43.265625 14.203125 45.84375 21.78125 
L 62.984375 71.578125 
L 75.734375 71.578125 
L 75.734375 0 
L 66.609375 0 
L 66.609375 59.90625 
L 45.796875 0 
L 37.25 0 
L 16.546875 60.9375 
L 16.546875 0 
z
" id="ArialMT-4d"/>
    </defs>
    <g style="fill:#262626;" transform="translate(281.641205357 16.6)scale(0.12 -0.12)">
     <use xlink:href="#ArialMT-42"/>
     <use x="66.69921875" xlink:href="#ArialMT-6c"/>
     <use x="88.916015625" xlink:href="#ArialMT-69"/>
     <use x="111.1328125" xlink:href="#ArialMT-6e"/>
     <use x="166.748046875" xlink:href="#ArialMT-64"/>
     <use x="222.36328125" xlink:href="#ArialMT-20"/>
     <use x="250.146484375" xlink:href="#ArialMT-4d"/>
     <use x="333.447265625" xlink:href="#ArialMT-65"/>
     <use x="389.0625" xlink:href="#ArialMT-61"/>
     <use x="444.677734375" xlink:href="#ArialMT-6e"/>
    </g>
   </g>
  </g>
  <g id="axes_2">
   <g id="patch_34">
    <path d="M 445.577143 194.4 
L 636.891429 194.4 
L 636.891429 21.6 
L 445.577143 21.6 
z
" style="fill:#eaeaf2;"/>
   </g>
   <g id="matplotlib.axis_3">
    <g id="xtick_4">
     <g id="line2d_10">
      <path clip-path="url(#pe73f787406)" d="M 445.577143 194.4 
L 445.577143 21.6 
" style="fill:none;stroke:#ffffff;stroke-linecap:round;"/>
     </g>
     <g id="line2d_11">
      <g>
       <use style="fill:#808080;stroke:#808080;" x="445.577142857" xlink:href="#me142d4c474" y="194.4"/>
      </g>
     </g>
     <g id="text_9">
      <!-- 0.78 -->
      <defs>
       <path d="M 17.671875 38.8125 
Q 12.203125 40.828125 9.5625 44.53125 
Q 6.9375 48.25 6.9375 53.421875 
Q 6.9375 61.234375 12.546875 66.546875 
Q 18.171875 71.875 27.484375 71.875 
Q 36.859375 71.875 42.578125 66.421875 
Q 48.296875 60.984375 48.296875 53.171875 
Q 48.296875 48.1875 45.671875 44.5 
Q 43.0625 40.828125 37.75 38.8125 
Q 44.34375 36.671875 47.78125 31.875 
Q 51.21875 27.09375 51.21875 20.453125 
Q 51.21875 11.28125 44.71875 5.03125 
Q 38.234375 -1.21875 27.640625 -1.21875 
Q 17.046875 -1.21875 10.546875 5.046875 
Q 4.046875 11.328125 4.046875 20.703125 
Q 4.046875 27.6875 7.59375 32.390625 
Q 11.140625 37.109375 17.671875 38.8125 
M 15.921875 53.71875 
Q 15.921875 48.640625 19.1875 45.40625 
Q 22.46875 42.1875 27.6875 42.1875 
Q 32.765625 42.1875 36.015625 45.375 
Q 39.265625 48.578125 39.265625 53.21875 
Q 39.265625 58.0625 35.90625 61.359375 
Q 32.5625 64.65625 27.59375 64.65625 
Q 22.5625 64.65625 19.234375 61.421875 
Q 15.921875 58.203125 15.921875 53.71875 
M 13.09375 20.65625 
Q 13.09375 16.890625 14.875 13.375 
Q 16.65625 9.859375 20.171875 7.921875 
Q 23.6875 6 27.734375 6 
Q 34.03125 6 38.125 10.046875 
Q 42.234375 14.109375 42.234375 20.359375 
Q 42.234375 26.703125 38.015625 30.859375 
Q 33.796875 35.015625 27.4375 35.015625 
Q 21.234375 35.015625 17.15625 30.90625 
Q 13.09375 26.8125 13.09375 20.65625 
" id="ArialMT-38"/>
      </defs>
      <g style="fill:#262626;" transform="translate(435.846674107 208.5578125)scale(0.1 -0.1)">
       <use xlink:href="#ArialMT-30"/>
       <use x="55.615234375" xlink:href="#ArialMT-2e"/>
       <use x="83.3984375" xlink:href="#ArialMT-37"/>
       <use x="139.013671875" xlink:href="#ArialMT-38"/>
      </g>
     </g>
    </g>
    <g id="xtick_5">
     <g id="line2d_12">
      <path clip-path="url(#pe73f787406)" d="M 541.234286 194.4 
L 541.234286 21.6 
" style="fill:none;stroke:#ffffff;stroke-linecap:round;"/>
     </g>
     <g id="line2d_13">
      <g>
       <use style="fill:#808080;stroke:#808080;" x="541.234285714" xlink:href="#me142d4c474" y="194.4"/>
      </g>
     </g>
     <g id="text_10">
      <!-- 0.80 -->
      <g style="fill:#262626;" transform="translate(531.503816964 208.5578125)scale(0.1 -0.1)">
       <use xlink:href="#ArialMT-30"/>
       <use x="55.615234375" xlink:href="#ArialMT-2e"/>
       <use x="83.3984375" xlink:href="#ArialMT-38"/>
       <use x="139.013671875" xlink:href="#ArialMT-30"/>
      </g>
     </g>
    </g>
    <g id="xtick_6">
     <g id="line2d_14">
      <path clip-path="url(#pe73f787406)" d="M 636.891429 194.4 
L 636.891429 21.6 
" style="fill:none;stroke:#ffffff;stroke-linecap:round;"/>
     </g>
     <g id="line2d_15">
      <g>
       <use style="fill:#808080;stroke:#808080;" x="636.891428571" xlink:href="#me142d4c474" y="194.4"/>
      </g>
     </g>
     <g id="text_11">
      <!-- 0.82 -->
      <g style="fill:#262626;" transform="translate(627.160959821 208.5578125)scale(0.1 -0.1)">
       <use xlink:href="#ArialMT-30"/>
       <use x="55.615234375" xlink:href="#ArialMT-2e"/>
       <use x="83.3984375" xlink:href="#ArialMT-38"/>
       <use x="139.013671875" xlink:href="#ArialMT-32"/>
      </g>
     </g>
    </g>
   </g>
   <g id="matplotlib.axis_4">
    <g id="ytick_3">
     <g id="line2d_16">
      <path clip-path="url(#pe73f787406)" d="M 445.577143 194.4 
L 636.891429 194.4 
" style="fill:none;stroke:#ffffff;stroke-linecap:round;"/>
     </g>
    </g>
    <g id="ytick_4">
     <g id="line2d_17">
      <path clip-path="url(#pe73f787406)" d="M 445.577143 21.6 
L 636.891429 21.6 
" style="fill:none;stroke:#ffffff;stroke-linecap:round;"/>
     </g>
    </g>
   </g>
   <g id="patch_35">
    <path clip-path="url(#pe73f787406)" d="M 483.117538 194.4 
L 486.96414 194.4 
L 486.96414 193.7088 
L 483.117538 193.7088 
z
" style="fill:#87ceeb;stroke:#ffffff;stroke-linejoin:miter;stroke-width:0.3;"/>
   </g>
   <g id="patch_36">
    <path clip-path="url(#pe73f787406)" d="M 486.96414 194.4 
L 490.810742 194.4 
L 490.810742 193.3632 
L 486.96414 193.3632 
z
" style="fill:#87ceeb;stroke:#ffffff;stroke-linejoin:miter;stroke-width:0.3;"/>
   </g>
   <g id="patch_37">
    <path clip-path="url(#pe73f787406)" d="M 490.810742 194.4 
L 494.657343 194.4 
L 494.657343 193.7088 
L 490.810742 193.7088 
z
" style="fill:#87ceeb;stroke:#ffffff;stroke-linejoin:miter;stroke-width:0.3;"/>
   </g>
   <g id="patch_38">
    <path clip-path="url(#pe73f787406)" d="M 494.657343 194.4 
L 498.503945 194.4 
L 498.503945 191.9808 
L 494.657343 191.9808 
z
" style="fill:#87ceeb;stroke:#ffffff;stroke-linejoin:miter;stroke-width:0.3;"/>
   </g>
   <g id="patch_39">
    <path clip-path="url(#pe73f787406)" d="M 498.503945 194.4 
L 502.350547 194.4 
L 502.350547 189.5616 
L 498.503945 189.5616 
z
" style="fill:#87ceeb;stroke:#ffffff;stroke-linejoin:miter;stroke-width:0.3;"/>
   </g>
   <g id="patch_40">
    <path clip-path="url(#pe73f787406)" d="M 502.350547 194.4 
L 506.197149 194.4 
L 506.197149 187.1424 
L 502.350547 187.1424 
z
" style="fill:#87ceeb;stroke:#ffffff;stroke-linejoin:miter;stroke-width:0.3;"/>
   </g>
   <g id="patch_41">
    <path clip-path="url(#pe73f787406)" d="M 506.197149 194.4 
L 510.043751 194.4 
L 510.043751 182.9952 
L 506.197149 182.9952 
z
" style="fill:#87ceeb;stroke:#ffffff;stroke-linejoin:miter;stroke-width:0.3;"/>
   </g>
   <g id="patch_42">
    <path clip-path="url(#pe73f787406)" d="M 510.043751 194.4 
L 513.890353 194.4 
L 513.890353 173.3184 
L 510.043751 173.3184 
z
" style="fill:#87ceeb;stroke:#ffffff;stroke-linejoin:miter;stroke-width:0.3;"/>
   </g>
   <g id="patch_43">
    <path clip-path="url(#pe73f787406)" d="M 513.890353 194.4 
L 517.736955 194.4 
L 517.736955 160.8768 
L 513.890353 160.8768 
z
" style="fill:#87ceeb;stroke:#ffffff;stroke-linejoin:miter;stroke-width:0.3;"/>
   </g>
   <g id="patch_44">
    <path clip-path="url(#pe73f787406)" d="M 517.736955 194.4 
L 521.583557 194.4 
L 521.583557 146.7072 
L 517.736955 146.7072 
z
" style="fill:#87ceeb;stroke:#ffffff;stroke-linejoin:miter;stroke-width:0.3;"/>
   </g>
   <g id="patch_45">
    <path clip-path="url(#pe73f787406)" d="M 521.583557 194.4 
L 525.430159 194.4 
L 525.430159 125.9712 
L 521.583557 125.9712 
z
" style="fill:#87ceeb;stroke:#ffffff;stroke-linejoin:miter;stroke-width:0.3;"/>
   </g>
   <g id="patch_46">
    <path clip-path="url(#pe73f787406)" d="M 525.430159 194.4 
L 529.27676 194.4 
L 529.27676 94.5216 
L 525.430159 94.5216 
z
" style="fill:#87ceeb;stroke:#ffffff;stroke-linejoin:miter;stroke-width:0.3;"/>
   </g>
   <g id="patch_47">
    <path clip-path="url(#pe73f787406)" d="M 529.27676 194.4 
L 533.123362 194.4 
L 533.123362 86.9184 
L 529.27676 86.9184 
z
" style="fill:#87ceeb;stroke:#ffffff;stroke-linejoin:miter;stroke-width:0.3;"/>
   </g>
   <g id="patch_48">
    <path clip-path="url(#pe73f787406)" d="M 533.123362 194.4 
L 536.969964 194.4 
L 536.969964 61.6896 
L 533.123362 61.6896 
z
" style="fill:#87ceeb;stroke:#ffffff;stroke-linejoin:miter;stroke-width:0.3;"/>
   </g>
   <g id="patch_49">
    <path clip-path="url(#pe73f787406)" d="M 536.969964 194.4 
L 540.816566 194.4 
L 540.816566 64.1088 
L 536.969964 64.1088 
z
" style="fill:#87ceeb;stroke:#ffffff;stroke-linejoin:miter;stroke-width:0.3;"/>
   </g>
   <g id="patch_50">
    <path clip-path="url(#pe73f787406)" d="M 540.816566 194.4 
L 544.663168 194.4 
L 544.663168 44.064 
L 540.816566 44.064 
z
" style="fill:#87ceeb;stroke:#ffffff;stroke-linejoin:miter;stroke-width:0.3;"/>
   </g>
   <g id="patch_51">
    <path clip-path="url(#pe73f787406)" d="M 544.663168 194.4 
L 548.50977 194.4 
L 548.50977 77.9328 
L 544.663168 77.9328 
z
" style="fill:#87ceeb;stroke:#ffffff;stroke-linejoin:miter;stroke-width:0.3;"/>
   </g>
   <g id="patch_52">
    <path clip-path="url(#pe73f787406)" d="M 548.50977 194.4 
L 552.356372 194.4 
L 552.356372 78.9696 
L 548.50977 78.9696 
z
" style="fill:#87ceeb;stroke:#ffffff;stroke-linejoin:miter;stroke-width:0.3;"/>
   </g>
   <g id="patch_53">
    <path clip-path="url(#pe73f787406)" d="M 552.356372 194.4 
L 556.202974 194.4 
L 556.202974 102.816 
L 552.356372 102.816 
z
" style="fill:#87ceeb;stroke:#ffffff;stroke-linejoin:miter;stroke-width:0.3;"/>
   </g>
   <g id="patch_54">
    <path clip-path="url(#pe73f787406)" d="M 556.202974 194.4 
L 560.049575 194.4 
L 560.049575 111.8016 
L 556.202974 111.8016 
z
" style="fill:#87ceeb;stroke:#ffffff;stroke-linejoin:miter;stroke-width:0.3;"/>
   </g>
   <g id="patch_55">
    <path clip-path="url(#pe73f787406)" d="M 560.049575 194.4 
L 563.896177 194.4 
L 563.896177 140.832 
L 560.049575 140.832 
z
" style="fill:#87ceeb;stroke:#ffffff;stroke-linejoin:miter;stroke-width:0.3;"/>
   </g>
   <g id="patch_56">
    <path clip-path="url(#pe73f787406)" d="M 563.896177 194.4 
L 567.742779 194.4 
L 567.742779 153.6192 
L 563.896177 153.6192 
z
" style="fill:#87ceeb;stroke:#ffffff;stroke-linejoin:miter;stroke-width:0.3;"/>
   </g>
   <g id="patch_57">
    <path clip-path="url(#pe73f787406)" d="M 567.742779 194.4 
L 571.589381 194.4 
L 571.589381 165.7152 
L 567.742779 165.7152 
z
" style="fill:#87ceeb;stroke:#ffffff;stroke-linejoin:miter;stroke-width:0.3;"/>
   </g>
   <g id="patch_58">
    <path clip-path="url(#pe73f787406)" d="M 571.589381 194.4 
L 575.435983 194.4 
L 575.435983 181.2672 
L 571.589381 181.2672 
z
" style="fill:#87ceeb;stroke:#ffffff;stroke-linejoin:miter;stroke-width:0.3;"/>
   </g>
   <g id="patch_59">
    <path clip-path="url(#pe73f787406)" d="M 575.435983 194.4 
L 579.282585 194.4 
L 579.282585 186.1056 
L 575.435983 186.1056 
z
" style="fill:#87ceeb;stroke:#ffffff;stroke-linejoin:miter;stroke-width:0.3;"/>
   </g>
   <g id="patch_60">
    <path clip-path="url(#pe73f787406)" d="M 579.282585 194.4 
L 583.129187 194.4 
L 583.129187 187.488 
L 579.282585 187.488 
z
" style="fill:#87ceeb;stroke:#ffffff;stroke-linejoin:miter;stroke-width:0.3;"/>
   </g>
   <g id="patch_61">
    <path clip-path="url(#pe73f787406)" d="M 583.129187 194.4 
L 586.975789 194.4 
L 586.975789 191.2896 
L 583.129187 191.2896 
z
" style="fill:#87ceeb;stroke:#ffffff;stroke-linejoin:miter;stroke-width:0.3;"/>
   </g>
   <g id="patch_62">
    <path clip-path="url(#pe73f787406)" d="M 586.975789 194.4 
L 590.822391 194.4 
L 590.822391 193.0176 
L 586.975789 193.0176 
z
" style="fill:#87ceeb;stroke:#ffffff;stroke-linejoin:miter;stroke-width:0.3;"/>
   </g>
   <g id="patch_63">
    <path clip-path="url(#pe73f787406)" d="M 590.822391 194.4 
L 594.668992 194.4 
L 594.668992 194.0544 
L 590.822391 194.0544 
z
" style="fill:#87ceeb;stroke:#ffffff;stroke-linejoin:miter;stroke-width:0.3;"/>
   </g>
   <g id="patch_64">
    <path clip-path="url(#pe73f787406)" d="M 594.668992 194.4 
L 598.515594 194.4 
L 598.515594 194.0544 
L 594.668992 194.0544 
z
" style="fill:#87ceeb;stroke:#ffffff;stroke-linejoin:miter;stroke-width:0.3;"/>
   </g>
   <g id="line2d_18">
    <path clip-path="url(#pe73f787406)" d="M 510.398293 191.2896 
L 570.284458 191.2896 
" style="fill:none;stroke:#000000;stroke-linecap:round;stroke-width:4.0;"/>
   </g>
   <g id="patch_65">
    <path d="M 445.577143 194.4 
L 636.891429 194.4 
" style="fill:none;"/>
   </g>
   <g id="text_12">
    <!-- 0.794 -->
    <g style="fill:#262626;" transform="translate(490.380792838 183.5136)scale(0.16 -0.16)">
     <use xlink:href="#ArialMT-30"/>
     <use x="55.615234375" xlink:href="#ArialMT-2e"/>
     <use x="83.3984375" xlink:href="#ArialMT-37"/>
     <use x="139.013671875" xlink:href="#ArialMT-39"/>
     <use x="194.62890625" xlink:href="#ArialMT-34"/>
    </g>
   </g>
   <g id="text_13">
    <!-- 0.806 -->
    <g style="fill:#262626;" transform="translate(550.266958069 183.5136)scale(0.16 -0.16)">
     <use xlink:href="#ArialMT-30"/>
     <use x="55.615234375" xlink:href="#ArialMT-2e"/>
     <use x="83.3984375" xlink:href="#ArialMT-38"/>
     <use x="139.013671875" xlink:href="#ArialMT-30"/>
     <use x="194.62890625" xlink:href="#ArialMT-36"/>
    </g>
   </g>
   <g id="text_14">
    <!-- 95% HPD -->
    <g style="fill:#262626;" transform="translate(505.216375454 163.296)scale(0.16 -0.16)">
     <use xlink:href="#ArialMT-39"/>
     <use x="55.615234375" xlink:href="#ArialMT-35"/>
     <use x="111.23046875" xlink:href="#ArialMT-25"/>
     <use x="200.146484375" xlink:href="#ArialMT-20"/>
     <use x="227.9296875" xlink:href="#ArialMT-48"/>
     <use x="300.146484375" xlink:href="#ArialMT-50"/>
     <use x="366.845703125" xlink:href="#ArialMT-44"/>
    </g>
   </g>
   <g id="text_15">
    <!-- mean=0.8 -->
    <g style="fill:#262626;" transform="translate(503.683794815 69.984)scale(0.16 -0.16)">
     <use xlink:href="#ArialMT-6d"/>
     <use x="83.30078125" xlink:href="#ArialMT-65"/>
     <use x="138.916015625" xlink:href="#ArialMT-61"/>
     <use x="194.53125" xlink:href="#ArialMT-6e"/>
     <use x="250.146484375" xlink:href="#ArialMT-3d"/>
     <use x="308.544921875" xlink:href="#ArialMT-30"/>
     <use x="364.16015625" xlink:href="#ArialMT-2e"/>
     <use x="391.943359375" xlink:href="#ArialMT-38"/>
    </g>
   </g>
   <g id="text_16">
    <!-- Calibrated Mean -->
    <defs>
     <path d="M 14.703125 0 
L 6.546875 0 
L 6.546875 71.578125 
L 15.328125 71.578125 
L 15.328125 46.046875 
Q 20.90625 53.03125 29.546875 53.03125 
Q 34.328125 53.03125 38.59375 51.09375 
Q 42.875 49.171875 45.625 45.671875 
Q 48.390625 42.1875 49.953125 37.25 
Q 51.515625 32.328125 51.515625 26.703125 
Q 51.515625 13.375 44.921875 6.09375 
Q 38.328125 -1.171875 29.109375 -1.171875 
Q 19.921875 -1.171875 14.703125 6.5 
z
M 14.59375 26.3125 
Q 14.59375 17 17.140625 12.84375 
Q 21.296875 6.0625 28.375 6.0625 
Q 34.125 6.0625 38.328125 11.0625 
Q 42.53125 16.0625 42.53125 25.984375 
Q 42.53125 36.140625 38.5 40.96875 
Q 34.46875 45.796875 28.765625 45.796875 
Q 23 45.796875 18.796875 40.796875 
Q 14.59375 35.796875 14.59375 26.3125 
" id="ArialMT-62"/>
     <path d="M 25.78125 7.859375 
L 27.046875 0.09375 
Q 23.34375 -0.6875 20.40625 -0.6875 
Q 15.625 -0.6875 12.984375 0.828125 
Q 10.359375 2.34375 9.28125 4.8125 
Q 8.203125 7.28125 8.203125 15.1875 
L 8.203125 45.015625 
L 1.765625 45.015625 
L 1.765625 51.859375 
L 8.203125 51.859375 
L 8.203125 64.703125 
L 16.9375 69.96875 
L 16.9375 51.859375 
L 25.78125 51.859375 
L 25.78125 45.015625 
L 16.9375 45.015625 
L 16.9375 14.703125 
Q 16.9375 10.9375 17.40625 9.859375 
Q 17.875 8.796875 18.921875 8.15625 
Q 19.96875 7.515625 21.921875 7.515625 
Q 23.390625 7.515625 25.78125 7.859375 
" id="ArialMT-74"/>
     <path d="M 58.796875 25.09375 
L 68.265625 22.703125 
Q 65.28125 11.03125 57.546875 4.90625 
Q 49.8125 -1.21875 38.625 -1.21875 
Q 27.046875 -1.21875 19.796875 3.484375 
Q 12.546875 8.203125 8.765625 17.140625 
Q 4.984375 26.078125 4.984375 36.328125 
Q 4.984375 47.515625 9.25 55.828125 
Q 13.53125 64.15625 21.40625 68.46875 
Q 29.296875 72.796875 38.765625 72.796875 
Q 49.515625 72.796875 56.828125 67.328125 
Q 64.15625 61.859375 67.046875 51.953125 
L 57.71875 49.75 
Q 55.21875 57.5625 50.484375 61.125 
Q 45.75 64.703125 38.578125 64.703125 
Q 30.328125 64.703125 24.78125 60.734375 
Q 19.234375 56.78125 16.984375 50.109375 
Q 14.75 43.453125 14.75 36.375 
Q 14.75 27.25 17.40625 20.4375 
Q 20.0625 13.625 25.671875 10.25 
Q 31.296875 6.890625 37.84375 6.890625 
Q 45.796875 6.890625 51.3125 11.46875 
Q 56.84375 16.0625 58.796875 25.09375 
" id="ArialMT-43"/>
     <path d="M 6.5 0 
L 6.5 51.859375 
L 14.40625 51.859375 
L 14.40625 44 
Q 17.4375 49.515625 20 51.265625 
Q 22.5625 53.03125 25.640625 53.03125 
Q 30.078125 53.03125 34.671875 50.203125 
L 31.640625 42.046875 
Q 28.421875 43.953125 25.203125 43.953125 
Q 22.3125 43.953125 20.015625 42.21875 
Q 17.71875 40.484375 16.75 37.40625 
Q 15.28125 32.71875 15.28125 27.15625 
L 15.28125 0 
z
" id="ArialMT-72"/>
    </defs>
    <g style="fill:#262626;" transform="translate(497.213035714 16.6)scale(0.12 -0.12)">
     <use xlink:href="#ArialMT-43"/>
     <use x="72.216796875" xlink:href="#ArialMT-61"/>
     <use x="127.83203125" xlink:href="#ArialMT-6c"/>
     <use x="150.048828125" xlink:href="#ArialMT-69"/>
     <use x="172.265625" xlink:href="#ArialMT-62"/>
     <use x="227.880859375" xlink:href="#ArialMT-72"/>
     <use x="261.181640625" xlink:href="#ArialMT-61"/>
     <use x="316.796875" xlink:href="#ArialMT-74"/>
     <use x="344.580078125" xlink:href="#ArialMT-65"/>
     <use x="400.1953125" xlink:href="#ArialMT-64"/>
     <use x="455.810546875" xlink:href="#ArialMT-20"/>
     <use x="483.59375" xlink:href="#ArialMT-4d"/>
     <use x="566.89453125" xlink:href="#ArialMT-65"/>
     <use x="622.509765625" xlink:href="#ArialMT-61"/>
     <use x="678.125" xlink:href="#ArialMT-6e"/>
    </g>
   </g>
  </g>
  <g id="axes_3">
   <g id="patch_66">
    <path d="M 675.154286 194.4 
L 866.468571 194.4 
L 866.468571 21.6 
L 675.154286 21.6 
z
" style="fill:#eaeaf2;"/>
   </g>
   <g id="matplotlib.axis_5">
    <g id="xtick_7">
     <g id="line2d_19">
      <path clip-path="url(#p5da6ff3af7)" d="M 675.154286 194.4 
L 675.154286 21.6 
" style="fill:none;stroke:#ffffff;stroke-linecap:round;"/>
     </g>
     <g id="line2d_20">
      <g>
       <use style="fill:#808080;stroke:#808080;" x="675.154285714" xlink:href="#me142d4c474" y="194.4"/>
      </g>
     </g>
     <g id="text_17">
      <!-- 0.47 -->
      <g style="fill:#262626;" transform="translate(665.423816964 208.5578125)scale(0.1 -0.1)">
       <use xlink:href="#ArialMT-30"/>
       <use x="55.615234375" xlink:href="#ArialMT-2e"/>
       <use x="83.3984375" xlink:href="#ArialMT-34"/>
       <use x="139.013671875" xlink:href="#ArialMT-37"/>
      </g>
     </g>
    </g>
    <g id="xtick_8">
     <g id="line2d_21">
      <path clip-path="url(#p5da6ff3af7)" d="M 722.982857 194.4 
L 722.982857 21.6 
" style="fill:none;stroke:#ffffff;stroke-linecap:round;"/>
     </g>
     <g id="line2d_22">
      <g>
       <use style="fill:#808080;stroke:#808080;" x="722.982857143" xlink:href="#me142d4c474" y="194.4"/>
      </g>
     </g>
     <g id="text_18">
      <!-- 0.48 -->
      <g style="fill:#262626;" transform="translate(713.252388393 208.5578125)scale(0.1 -0.1)">
       <use xlink:href="#ArialMT-30"/>
       <use x="55.615234375" xlink:href="#ArialMT-2e"/>
       <use x="83.3984375" xlink:href="#ArialMT-34"/>
       <use x="139.013671875" xlink:href="#ArialMT-38"/>
      </g>
     </g>
    </g>
    <g id="xtick_9">
     <g id="line2d_23">
      <path clip-path="url(#p5da6ff3af7)" d="M 770.811429 194.4 
L 770.811429 21.6 
" style="fill:none;stroke:#ffffff;stroke-linecap:round;"/>
     </g>
     <g id="line2d_24">
      <g>
       <use style="fill:#808080;stroke:#808080;" x="770.811428571" xlink:href="#me142d4c474" y="194.4"/>
      </g>
     </g>
     <g id="text_19">
      <!-- 0.49 -->
      <g style="fill:#262626;" transform="translate(761.080959821 208.5578125)scale(0.1 -0.1)">
       <use xlink:href="#ArialMT-30"/>
       <use x="55.615234375" xlink:href="#ArialMT-2e"/>
       <use x="83.3984375" xlink:href="#ArialMT-34"/>
       <use x="139.013671875" xlink:href="#ArialMT-39"/>
      </g>
     </g>
    </g>
    <g id="xtick_10">
     <g id="line2d_25">
      <path clip-path="url(#p5da6ff3af7)" d="M 818.64 194.4 
L 818.64 21.6 
" style="fill:none;stroke:#ffffff;stroke-linecap:round;"/>
     </g>
     <g id="line2d_26">
      <g>
       <use style="fill:#808080;stroke:#808080;" x="818.64" xlink:href="#me142d4c474" y="194.4"/>
      </g>
     </g>
     <g id="text_20">
      <!-- 0.50 -->
      <g style="fill:#262626;" transform="translate(808.90953125 208.5578125)scale(0.1 -0.1)">
       <use xlink:href="#ArialMT-30"/>
       <use x="55.615234375" xlink:href="#ArialMT-2e"/>
       <use x="83.3984375" xlink:href="#ArialMT-35"/>
       <use x="139.013671875" xlink:href="#ArialMT-30"/>
      </g>
     </g>
    </g>
    <g id="xtick_11">
     <g id="line2d_27">
      <path clip-path="url(#p5da6ff3af7)" d="M 866.468571 194.4 
L 866.468571 21.6 
" style="fill:none;stroke:#ffffff;stroke-linecap:round;"/>
     </g>
     <g id="line2d_28">
      <g>
       <use style="fill:#808080;stroke:#808080;" x="866.468571429" xlink:href="#me142d4c474" y="194.4"/>
      </g>
     </g>
     <g id="text_21">
      <!-- 0.51 -->
      <defs>
       <path d="M 37.25 0 
L 28.46875 0 
L 28.46875 56 
Q 25.296875 52.984375 20.140625 49.953125 
Q 14.984375 46.921875 10.890625 45.40625 
L 10.890625 53.90625 
Q 18.265625 57.375 23.78125 62.296875 
Q 29.296875 67.234375 31.59375 71.875 
L 37.25 71.875 
z
" id="ArialMT-31"/>
      </defs>
      <g style="fill:#262626;" transform="translate(856.738102679 208.5578125)scale(0.1 -0.1)">
       <use xlink:href="#ArialMT-30"/>
       <use x="55.615234375" xlink:href="#ArialMT-2e"/>
       <use x="83.3984375" xlink:href="#ArialMT-35"/>
       <use x="139.013671875" xlink:href="#ArialMT-31"/>
      </g>
     </g>
    </g>
   </g>
   <g id="matplotlib.axis_6">
    <g id="ytick_5">
     <g id="line2d_29">
      <path clip-path="url(#p5da6ff3af7)" d="M 675.154286 194.4 
L 866.468571 194.4 
" style="fill:none;stroke:#ffffff;stroke-linecap:round;"/>
     </g>
    </g>
    <g id="ytick_6">
     <g id="line2d_30">
      <path clip-path="url(#p5da6ff3af7)" d="M 675.154286 21.6 
L 866.468571 21.6 
" style="fill:none;stroke:#ffffff;stroke-linecap:round;"/>
     </g>
    </g>
   </g>
   <g id="patch_67">
    <path clip-path="url(#p5da6ff3af7)" d="M 701.916989 194.4 
L 707.153383 194.4 
L 707.153383 193.3632 
L 701.916989 193.3632 
z
" style="fill:#87ceeb;stroke:#ffffff;stroke-linejoin:miter;stroke-width:0.3;"/>
   </g>
   <g id="patch_68">
    <path clip-path="url(#p5da6ff3af7)" d="M 707.153383 194.4 
L 712.389777 194.4 
L 712.389777 194.4 
L 707.153383 194.4 
z
" style="fill:#87ceeb;stroke:#ffffff;stroke-linejoin:miter;stroke-width:0.3;"/>
   </g>
   <g id="patch_69">
    <path clip-path="url(#p5da6ff3af7)" d="M 712.389777 194.4 
L 717.62617 194.4 
L 717.62617 193.7088 
L 712.389777 193.7088 
z
" style="fill:#87ceeb;stroke:#ffffff;stroke-linejoin:miter;stroke-width:0.3;"/>
   </g>
   <g id="patch_70">
    <path clip-path="url(#p5da6ff3af7)" d="M 717.62617 194.4 
L 722.862564 194.4 
L 722.862564 190.944 
L 717.62617 190.944 
z
" style="fill:#87ceeb;stroke:#ffffff;stroke-linejoin:miter;stroke-width:0.3;"/>
   </g>
   <g id="patch_71">
    <path clip-path="url(#p5da6ff3af7)" d="M 722.862564 194.4 
L 728.098958 194.4 
L 728.098958 188.5248 
L 722.862564 188.5248 
z
" style="fill:#87ceeb;stroke:#ffffff;stroke-linejoin:miter;stroke-width:0.3;"/>
   </g>
   <g id="patch_72">
    <path clip-path="url(#p5da6ff3af7)" d="M 728.098958 194.4 
L 733.335352 194.4 
L 733.335352 184.7232 
L 728.098958 184.7232 
z
" style="fill:#87ceeb;stroke:#ffffff;stroke-linejoin:miter;stroke-width:0.3;"/>
   </g>
   <g id="patch_73">
    <path clip-path="url(#p5da6ff3af7)" d="M 733.335352 194.4 
L 738.571745 194.4 
L 738.571745 182.6496 
L 733.335352 182.6496 
z
" style="fill:#87ceeb;stroke:#ffffff;stroke-linejoin:miter;stroke-width:0.3;"/>
   </g>
   <g id="patch_74">
    <path clip-path="url(#p5da6ff3af7)" d="M 738.571745 194.4 
L 743.808139 194.4 
L 743.808139 171.936 
L 738.571745 171.936 
z
" style="fill:#87ceeb;stroke:#ffffff;stroke-linejoin:miter;stroke-width:0.3;"/>
   </g>
   <g id="patch_75">
    <path clip-path="url(#p5da6ff3af7)" d="M 743.808139 194.4 
L 749.044533 194.4 
L 749.044533 170.5536 
L 743.808139 170.5536 
z
" style="fill:#87ceeb;stroke:#ffffff;stroke-linejoin:miter;stroke-width:0.3;"/>
   </g>
   <g id="patch_76">
    <path clip-path="url(#p5da6ff3af7)" d="M 749.044533 194.4 
L 754.280927 194.4 
L 754.280927 157.0752 
L 749.044533 157.0752 
z
" style="fill:#87ceeb;stroke:#ffffff;stroke-linejoin:miter;stroke-width:0.3;"/>
   </g>
   <g id="patch_77">
    <path clip-path="url(#p5da6ff3af7)" d="M 754.280927 194.4 
L 759.517321 194.4 
L 759.517321 148.7808 
L 754.280927 148.7808 
z
" style="fill:#87ceeb;stroke:#ffffff;stroke-linejoin:miter;stroke-width:0.3;"/>
   </g>
   <g id="patch_78">
    <path clip-path="url(#p5da6ff3af7)" d="M 759.517321 194.4 
L 764.753714 194.4 
L 764.753714 135.9936 
L 759.517321 135.9936 
z
" style="fill:#87ceeb;stroke:#ffffff;stroke-linejoin:miter;stroke-width:0.3;"/>
   </g>
   <g id="patch_79">
    <path clip-path="url(#p5da6ff3af7)" d="M 764.753714 194.4 
L 769.990108 194.4 
L 769.990108 122.5152 
L 764.753714 122.5152 
z
" style="fill:#87ceeb;stroke:#ffffff;stroke-linejoin:miter;stroke-width:0.3;"/>
   </g>
   <g id="patch_80">
    <path clip-path="url(#p5da6ff3af7)" d="M 769.990108 194.4 
L 775.226502 194.4 
L 775.226502 117.3312 
L 769.990108 117.3312 
z
" style="fill:#87ceeb;stroke:#ffffff;stroke-linejoin:miter;stroke-width:0.3;"/>
   </g>
   <g id="patch_81">
    <path clip-path="url(#p5da6ff3af7)" d="M 775.226502 194.4 
L 780.462896 194.4 
L 780.462896 99.7056 
L 775.226502 99.7056 
z
" style="fill:#87ceeb;stroke:#ffffff;stroke-linejoin:miter;stroke-width:0.3;"/>
   </g>
   <g id="patch_82">
    <path clip-path="url(#p5da6ff3af7)" d="M 780.462896 194.4 
L 785.69929 194.4 
L 785.69929 86.9184 
L 780.462896 86.9184 
z
" style="fill:#87ceeb;stroke:#ffffff;stroke-linejoin:miter;stroke-width:0.3;"/>
   </g>
   <g id="patch_83">
    <path clip-path="url(#p5da6ff3af7)" d="M 785.69929 194.4 
L 790.935683 194.4 
L 790.935683 90.3744 
L 785.69929 90.3744 
z
" style="fill:#87ceeb;stroke:#ffffff;stroke-linejoin:miter;stroke-width:0.3;"/>
   </g>
   <g id="patch_84">
    <path clip-path="url(#p5da6ff3af7)" d="M 790.935683 194.4 
L 796.172077 194.4 
L 796.172077 90.0288 
L 790.935683 90.0288 
z
" style="fill:#87ceeb;stroke:#ffffff;stroke-linejoin:miter;stroke-width:0.3;"/>
   </g>
   <g id="patch_85">
    <path clip-path="url(#p5da6ff3af7)" d="M 796.172077 194.4 
L 801.408471 194.4 
L 801.408471 91.7568 
L 796.172077 91.7568 
z
" style="fill:#87ceeb;stroke:#ffffff;stroke-linejoin:miter;stroke-width:0.3;"/>
   </g>
   <g id="patch_86">
    <path clip-path="url(#p5da6ff3af7)" d="M 801.408471 194.4 
L 806.644865 194.4 
L 806.644865 94.5216 
L 801.408471 94.5216 
z
" style="fill:#87ceeb;stroke:#ffffff;stroke-linejoin:miter;stroke-width:0.3;"/>
   </g>
   <g id="patch_87">
    <path clip-path="url(#p5da6ff3af7)" d="M 806.644865 194.4 
L 811.881258 194.4 
L 811.881258 102.1248 
L 806.644865 102.1248 
z
" style="fill:#87ceeb;stroke:#ffffff;stroke-linejoin:miter;stroke-width:0.3;"/>
   </g>
   <g id="patch_88">
    <path clip-path="url(#p5da6ff3af7)" d="M 811.881258 194.4 
L 817.117652 194.4 
L 817.117652 98.6688 
L 811.881258 98.6688 
z
" style="fill:#87ceeb;stroke:#ffffff;stroke-linejoin:miter;stroke-width:0.3;"/>
   </g>
   <g id="patch_89">
    <path clip-path="url(#p5da6ff3af7)" d="M 817.117652 194.4 
L 822.354046 194.4 
L 822.354046 105.5808 
L 817.117652 105.5808 
z
" style="fill:#87ceeb;stroke:#ffffff;stroke-linejoin:miter;stroke-width:0.3;"/>
   </g>
   <g id="patch_90">
    <path clip-path="url(#p5da6ff3af7)" d="M 822.354046 194.4 
L 827.59044 194.4 
L 827.59044 130.8096 
L 822.354046 130.8096 
z
" style="fill:#87ceeb;stroke:#ffffff;stroke-linejoin:miter;stroke-width:0.3;"/>
   </g>
   <g id="patch_91">
    <path clip-path="url(#p5da6ff3af7)" d="M 827.59044 194.4 
L 832.826834 194.4 
L 832.826834 166.0608 
L 827.59044 166.0608 
z
" style="fill:#87ceeb;stroke:#ffffff;stroke-linejoin:miter;stroke-width:0.3;"/>
   </g>
   <g id="patch_92">
    <path clip-path="url(#p5da6ff3af7)" d="M 832.826834 194.4 
L 838.063227 194.4 
L 838.063227 177.12 
L 832.826834 177.12 
z
" style="fill:#87ceeb;stroke:#ffffff;stroke-linejoin:miter;stroke-width:0.3;"/>
   </g>
   <g id="patch_93">
    <path clip-path="url(#p5da6ff3af7)" d="M 838.063227 194.4 
L 843.299621 194.4 
L 843.299621 187.1424 
L 838.063227 187.1424 
z
" style="fill:#87ceeb;stroke:#ffffff;stroke-linejoin:miter;stroke-width:0.3;"/>
   </g>
   <g id="patch_94">
    <path clip-path="url(#p5da6ff3af7)" d="M 843.299621 194.4 
L 848.536015 194.4 
L 848.536015 191.2896 
L 843.299621 191.2896 
z
" style="fill:#87ceeb;stroke:#ffffff;stroke-linejoin:miter;stroke-width:0.3;"/>
   </g>
   <g id="patch_95">
    <path clip-path="url(#p5da6ff3af7)" d="M 848.536015 194.4 
L 853.772409 194.4 
L 853.772409 192.672 
L 848.536015 192.672 
z
" style="fill:#87ceeb;stroke:#ffffff;stroke-linejoin:miter;stroke-width:0.3;"/>
   </g>
   <g id="patch_96">
    <path clip-path="url(#p5da6ff3af7)" d="M 853.772409 194.4 
L 859.008803 194.4 
L 859.008803 192.3264 
L 853.772409 192.3264 
z
" style="fill:#87ceeb;stroke:#ffffff;stroke-linejoin:miter;stroke-width:0.3;"/>
   </g>
   <g id="line2d_31">
    <path clip-path="url(#p5da6ff3af7)" d="M 739.427058 191.9808 
L 831.554819 191.9808 
" style="fill:none;stroke:#000000;stroke-linecap:round;stroke-width:4.0;"/>
   </g>
   <g id="patch_97">
    <path d="M 675.154286 194.4 
L 866.468571 194.4 
" style="fill:none;"/>
   </g>
   <g id="text_22">
    <!-- 0.483 -->
    <g style="fill:#262626;" transform="translate(719.409558108 185.9328)scale(0.16 -0.16)">
     <use xlink:href="#ArialMT-30"/>
     <use x="55.615234375" xlink:href="#ArialMT-2e"/>
     <use x="83.3984375" xlink:href="#ArialMT-34"/>
     <use x="139.013671875" xlink:href="#ArialMT-38"/>
     <use x="194.62890625" xlink:href="#ArialMT-33"/>
    </g>
   </g>
   <g id="text_23">
    <!-- 0.503 -->
    <g style="fill:#262626;" transform="translate(811.537318598 185.9328)scale(0.16 -0.16)">
     <use xlink:href="#ArialMT-30"/>
     <use x="55.615234375" xlink:href="#ArialMT-2e"/>
     <use x="83.3984375" xlink:href="#ArialMT-35"/>
     <use x="139.013671875" xlink:href="#ArialMT-30"/>
     <use x="194.62890625" xlink:href="#ArialMT-33"/>
    </g>
   </g>
   <g id="text_24">
    <!-- 95% HPD -->
    <g style="fill:#262626;" transform="translate(750.365938353 170.208)scale(0.16 -0.16)">
     <use xlink:href="#ArialMT-39"/>
     <use x="55.615234375" xlink:href="#ArialMT-35"/>
     <use x="111.23046875" xlink:href="#ArialMT-25"/>
     <use x="200.146484375" xlink:href="#ArialMT-20"/>
     <use x="227.9296875" xlink:href="#ArialMT-48"/>
     <use x="300.146484375" xlink:href="#ArialMT-50"/>
     <use x="366.845703125" xlink:href="#ArialMT-44"/>
    </g>
   </g>
   <g id="text_25">
    <!-- mean=0.494 -->
    <g style="fill:#262626;" transform="translate(743.145619349 97.632)scale(0.16 -0.16)">
     <use xlink:href="#ArialMT-6d"/>
     <use x="83.30078125" xlink:href="#ArialMT-65"/>
     <use x="138.916015625" xlink:href="#ArialMT-61"/>
     <use x="194.53125" xlink:href="#ArialMT-6e"/>
     <use x="250.146484375" xlink:href="#ArialMT-3d"/>
     <use x="308.544921875" xlink:href="#ArialMT-30"/>
     <use x="364.16015625" xlink:href="#ArialMT-2e"/>
     <use x="391.943359375" xlink:href="#ArialMT-34"/>
     <use x="447.55859375" xlink:href="#ArialMT-39"/>
     <use x="503.173828125" xlink:href="#ArialMT-34"/>
    </g>
   </g>
   <g id="text_26">
    <!-- ML effect -->
    <defs>
     <path d="M 8.6875 0 
L 8.6875 45.015625 
L 0.921875 45.015625 
L 0.921875 51.859375 
L 8.6875 51.859375 
L 8.6875 57.375 
Q 8.6875 62.59375 9.625 65.140625 
Q 10.890625 68.5625 14.078125 70.671875 
Q 17.28125 72.796875 23.046875 72.796875 
Q 26.765625 72.796875 31.25 71.921875 
L 29.9375 64.265625 
Q 27.203125 64.75 24.75 64.75 
Q 20.75 64.75 19.09375 63.03125 
Q 17.4375 61.328125 17.4375 56.640625 
L 17.4375 51.859375 
L 27.546875 51.859375 
L 27.546875 45.015625 
L 17.4375 45.015625 
L 17.4375 0 
z
" id="ArialMT-66"/>
     <path d="M 7.328125 0 
L 7.328125 71.578125 
L 16.796875 71.578125 
L 16.796875 8.453125 
L 52.046875 8.453125 
L 52.046875 0 
z
" id="ArialMT-4c"/>
     <path d="M 40.4375 19 
L 49.078125 17.875 
Q 47.65625 8.9375 41.8125 3.875 
Q 35.984375 -1.171875 27.484375 -1.171875 
Q 16.84375 -1.171875 10.375 5.78125 
Q 3.90625 12.75 3.90625 25.734375 
Q 3.90625 34.125 6.6875 40.421875 
Q 9.46875 46.734375 15.15625 49.875 
Q 20.84375 53.03125 27.546875 53.03125 
Q 35.984375 53.03125 41.359375 48.75 
Q 46.734375 44.484375 48.25 36.625 
L 39.703125 35.296875 
Q 38.484375 40.53125 35.375 43.15625 
Q 32.28125 45.796875 27.875 45.796875 
Q 21.234375 45.796875 17.078125 41.03125 
Q 12.9375 36.28125 12.9375 25.984375 
Q 12.9375 15.53125 16.9375 10.796875 
Q 20.953125 6.0625 27.390625 6.0625 
Q 32.5625 6.0625 36.03125 9.234375 
Q 39.5 12.40625 40.4375 19 
" id="ArialMT-63"/>
    </defs>
    <g style="fill:#262626;" transform="translate(746.140178571 16.6)scale(0.12 -0.12)">
     <use xlink:href="#ArialMT-4d"/>
     <use x="83.30078125" xlink:href="#ArialMT-4c"/>
     <use x="138.869140625" xlink:href="#ArialMT-20"/>
     <use x="166.65234375" xlink:href="#ArialMT-65"/>
     <use x="222.267578125" xlink:href="#ArialMT-66"/>
     <use x="250.03515625" xlink:href="#ArialMT-66"/>
     <use x="277.818359375" xlink:href="#ArialMT-65"/>
     <use x="333.43359375" xlink:href="#ArialMT-63"/>
     <use x="383.43359375" xlink:href="#ArialMT-74"/>
    </g>
   </g>
  </g>
  <g id="axes_4">
   <g id="patch_98">
    <path d="M 904.731429 194.4 
L 1096.045714 194.4 
L 1096.045714 21.6 
L 904.731429 21.6 
z
" style="fill:#eaeaf2;"/>
   </g>
   <g id="matplotlib.axis_7">
    <g id="xtick_12">
     <g id="line2d_32">
      <path clip-path="url(#p763d194b48)" d="M 952.56 194.4 
L 952.56 21.6 
" style="fill:none;stroke:#ffffff;stroke-linecap:round;"/>
     </g>
     <g id="line2d_33">
      <g>
       <use style="fill:#808080;stroke:#808080;" x="952.56" xlink:href="#me142d4c474" y="194.4"/>
      </g>
     </g>
     <g id="text_27">
      <!-- 0.50 -->
      <g style="fill:#262626;" transform="translate(942.82953125 208.5578125)scale(0.1 -0.1)">
       <use xlink:href="#ArialMT-30"/>
       <use x="55.615234375" xlink:href="#ArialMT-2e"/>
       <use x="83.3984375" xlink:href="#ArialMT-35"/>
       <use x="139.013671875" xlink:href="#ArialMT-30"/>
      </g>
     </g>
    </g>
    <g id="xtick_13">
     <g id="line2d_34">
      <path clip-path="url(#p763d194b48)" d="M 1048.217143 194.4 
L 1048.217143 21.6 
" style="fill:none;stroke:#ffffff;stroke-linecap:round;"/>
     </g>
     <g id="line2d_35">
      <g>
       <use style="fill:#808080;stroke:#808080;" x="1048.21714286" xlink:href="#me142d4c474" y="194.4"/>
      </g>
     </g>
     <g id="text_28">
      <!-- 0.52 -->
      <g style="fill:#262626;" transform="translate(1038.48667411 208.5578125)scale(0.1 -0.1)">
       <use xlink:href="#ArialMT-30"/>
       <use x="55.615234375" xlink:href="#ArialMT-2e"/>
       <use x="83.3984375" xlink:href="#ArialMT-35"/>
       <use x="139.013671875" xlink:href="#ArialMT-32"/>
      </g>
     </g>
    </g>
   </g>
   <g id="matplotlib.axis_8">
    <g id="ytick_7">
     <g id="line2d_36">
      <path clip-path="url(#p763d194b48)" d="M 904.731429 194.4 
L 1096.045714 194.4 
" style="fill:none;stroke:#ffffff;stroke-linecap:round;"/>
     </g>
    </g>
    <g id="ytick_8">
     <g id="line2d_37">
      <path clip-path="url(#p763d194b48)" d="M 904.731429 21.6 
L 1096.045714 21.6 
" style="fill:none;stroke:#ffffff;stroke-linecap:round;"/>
     </g>
    </g>
   </g>
   <g id="patch_99">
    <path clip-path="url(#p763d194b48)" d="M 913.961927 194.4 
L 919.149118 194.4 
L 919.149118 192.672 
L 913.961927 192.672 
z
" style="fill:#87ceeb;stroke:#ffffff;stroke-linejoin:miter;stroke-width:0.3;"/>
   </g>
   <g id="patch_100">
    <path clip-path="url(#p763d194b48)" d="M 919.149118 194.4 
L 924.336309 194.4 
L 924.336309 193.7088 
L 919.149118 193.7088 
z
" style="fill:#87ceeb;stroke:#ffffff;stroke-linejoin:miter;stroke-width:0.3;"/>
   </g>
   <g id="patch_101">
    <path clip-path="url(#p763d194b48)" d="M 924.336309 194.4 
L 929.5235 194.4 
L 929.5235 191.6352 
L 924.336309 191.6352 
z
" style="fill:#87ceeb;stroke:#ffffff;stroke-linejoin:miter;stroke-width:0.3;"/>
   </g>
   <g id="patch_102">
    <path clip-path="url(#p763d194b48)" d="M 929.5235 194.4 
L 934.710691 194.4 
L 934.710691 190.2528 
L 929.5235 190.2528 
z
" style="fill:#87ceeb;stroke:#ffffff;stroke-linejoin:miter;stroke-width:0.3;"/>
   </g>
   <g id="patch_103">
    <path clip-path="url(#p763d194b48)" d="M 934.710691 194.4 
L 939.897882 194.4 
L 939.897882 181.6128 
L 934.710691 181.6128 
z
" style="fill:#87ceeb;stroke:#ffffff;stroke-linejoin:miter;stroke-width:0.3;"/>
   </g>
   <g id="patch_104">
    <path clip-path="url(#p763d194b48)" d="M 939.897882 194.4 
L 945.085073 194.4 
L 945.085073 174.7008 
L 939.897882 174.7008 
z
" style="fill:#87ceeb;stroke:#ffffff;stroke-linejoin:miter;stroke-width:0.3;"/>
   </g>
   <g id="patch_105">
    <path clip-path="url(#p763d194b48)" d="M 945.085073 194.4 
L 950.272263 194.4 
L 950.272263 150.1632 
L 945.085073 150.1632 
z
" style="fill:#87ceeb;stroke:#ffffff;stroke-linejoin:miter;stroke-width:0.3;"/>
   </g>
   <g id="patch_106">
    <path clip-path="url(#p763d194b48)" d="M 950.272263 194.4 
L 955.459454 194.4 
L 955.459454 120.7872 
L 950.272263 120.7872 
z
" style="fill:#87ceeb;stroke:#ffffff;stroke-linejoin:miter;stroke-width:0.3;"/>
   </g>
   <g id="patch_107">
    <path clip-path="url(#p763d194b48)" d="M 955.459454 194.4 
L 960.646645 194.4 
L 960.646645 93.1392 
L 955.459454 93.1392 
z
" style="fill:#87ceeb;stroke:#ffffff;stroke-linejoin:miter;stroke-width:0.3;"/>
   </g>
   <g id="patch_108">
    <path clip-path="url(#p763d194b48)" d="M 960.646645 194.4 
L 965.833836 194.4 
L 965.833836 109.0368 
L 960.646645 109.0368 
z
" style="fill:#87ceeb;stroke:#ffffff;stroke-linejoin:miter;stroke-width:0.3;"/>
   </g>
   <g id="patch_109">
    <path clip-path="url(#p763d194b48)" d="M 965.833836 194.4 
L 971.021027 194.4 
L 971.021027 98.6688 
L 965.833836 98.6688 
z
" style="fill:#87ceeb;stroke:#ffffff;stroke-linejoin:miter;stroke-width:0.3;"/>
   </g>
   <g id="patch_110">
    <path clip-path="url(#p763d194b48)" d="M 971.021027 194.4 
L 976.208218 194.4 
L 976.208218 85.8816 
L 971.021027 85.8816 
z
" style="fill:#87ceeb;stroke:#ffffff;stroke-linejoin:miter;stroke-width:0.3;"/>
   </g>
   <g id="patch_111">
    <path clip-path="url(#p763d194b48)" d="M 976.208218 194.4 
L 981.395409 194.4 
L 981.395409 94.176 
L 976.208218 94.176 
z
" style="fill:#87ceeb;stroke:#ffffff;stroke-linejoin:miter;stroke-width:0.3;"/>
   </g>
   <g id="patch_112">
    <path clip-path="url(#p763d194b48)" d="M 981.395409 194.4 
L 986.5826 194.4 
L 986.5826 89.3376 
L 981.395409 89.3376 
z
" style="fill:#87ceeb;stroke:#ffffff;stroke-linejoin:miter;stroke-width:0.3;"/>
   </g>
   <g id="patch_113">
    <path clip-path="url(#p763d194b48)" d="M 986.5826 194.4 
L 991.769791 194.4 
L 991.769791 92.448 
L 986.5826 92.448 
z
" style="fill:#87ceeb;stroke:#ffffff;stroke-linejoin:miter;stroke-width:0.3;"/>
   </g>
   <g id="patch_114">
    <path clip-path="url(#p763d194b48)" d="M 991.769791 194.4 
L 996.956982 194.4 
L 996.956982 91.0656 
L 991.769791 91.0656 
z
" style="fill:#87ceeb;stroke:#ffffff;stroke-linejoin:miter;stroke-width:0.3;"/>
   </g>
   <g id="patch_115">
    <path clip-path="url(#p763d194b48)" d="M 996.956982 194.4 
L 1002.144173 194.4 
L 1002.144173 100.3968 
L 996.956982 100.3968 
z
" style="fill:#87ceeb;stroke:#ffffff;stroke-linejoin:miter;stroke-width:0.3;"/>
   </g>
   <g id="patch_116">
    <path clip-path="url(#p763d194b48)" d="M 1002.144173 194.4 
L 1007.331363 194.4 
L 1007.331363 118.7136 
L 1002.144173 118.7136 
z
" style="fill:#87ceeb;stroke:#ffffff;stroke-linejoin:miter;stroke-width:0.3;"/>
   </g>
   <g id="patch_117">
    <path clip-path="url(#p763d194b48)" d="M 1007.331363 194.4 
L 1012.518554 194.4 
L 1012.518554 129.7728 
L 1007.331363 129.7728 
z
" style="fill:#87ceeb;stroke:#ffffff;stroke-linejoin:miter;stroke-width:0.3;"/>
   </g>
   <g id="patch_118">
    <path clip-path="url(#p763d194b48)" d="M 1012.518554 194.4 
L 1017.705745 194.4 
L 1017.705745 137.7216 
L 1012.518554 137.7216 
z
" style="fill:#87ceeb;stroke:#ffffff;stroke-linejoin:miter;stroke-width:0.3;"/>
   </g>
   <g id="patch_119">
    <path clip-path="url(#p763d194b48)" d="M 1017.705745 194.4 
L 1022.892936 194.4 
L 1022.892936 156.384 
L 1017.705745 156.384 
z
" style="fill:#87ceeb;stroke:#ffffff;stroke-linejoin:miter;stroke-width:0.3;"/>
   </g>
   <g id="patch_120">
    <path clip-path="url(#p763d194b48)" d="M 1022.892936 194.4 
L 1028.080127 194.4 
L 1028.080127 156.0384 
L 1022.892936 156.0384 
z
" style="fill:#87ceeb;stroke:#ffffff;stroke-linejoin:miter;stroke-width:0.3;"/>
   </g>
   <g id="patch_121">
    <path clip-path="url(#p763d194b48)" d="M 1028.080127 194.4 
L 1033.267318 194.4 
L 1033.267318 173.664 
L 1028.080127 173.664 
z
" style="fill:#87ceeb;stroke:#ffffff;stroke-linejoin:miter;stroke-width:0.3;"/>
   </g>
   <g id="patch_122">
    <path clip-path="url(#p763d194b48)" d="M 1033.267318 194.4 
L 1038.454509 194.4 
L 1038.454509 184.032 
L 1033.267318 184.032 
z
" style="fill:#87ceeb;stroke:#ffffff;stroke-linejoin:miter;stroke-width:0.3;"/>
   </g>
   <g id="patch_123">
    <path clip-path="url(#p763d194b48)" d="M 1038.454509 194.4 
L 1043.6417 194.4 
L 1043.6417 185.4144 
L 1038.454509 185.4144 
z
" style="fill:#87ceeb;stroke:#ffffff;stroke-linejoin:miter;stroke-width:0.3;"/>
   </g>
   <g id="patch_124">
    <path clip-path="url(#p763d194b48)" d="M 1043.6417 194.4 
L 1048.828891 194.4 
L 1048.828891 187.8336 
L 1043.6417 187.8336 
z
" style="fill:#87ceeb;stroke:#ffffff;stroke-linejoin:miter;stroke-width:0.3;"/>
   </g>
   <g id="patch_125">
    <path clip-path="url(#p763d194b48)" d="M 1048.828891 194.4 
L 1054.016082 194.4 
L 1054.016082 190.944 
L 1048.828891 190.944 
z
" style="fill:#87ceeb;stroke:#ffffff;stroke-linejoin:miter;stroke-width:0.3;"/>
   </g>
   <g id="patch_126">
    <path clip-path="url(#p763d194b48)" d="M 1054.016082 194.4 
L 1059.203273 194.4 
L 1059.203273 191.6352 
L 1054.016082 191.6352 
z
" style="fill:#87ceeb;stroke:#ffffff;stroke-linejoin:miter;stroke-width:0.3;"/>
   </g>
   <g id="patch_127">
    <path clip-path="url(#p763d194b48)" d="M 1059.203273 194.4 
L 1064.390463 194.4 
L 1064.390463 194.0544 
L 1059.203273 194.0544 
z
" style="fill:#87ceeb;stroke:#ffffff;stroke-linejoin:miter;stroke-width:0.3;"/>
   </g>
   <g id="patch_128">
    <path clip-path="url(#p763d194b48)" d="M 1064.390463 194.4 
L 1069.577654 194.4 
L 1069.577654 193.7088 
L 1064.390463 193.7088 
z
" style="fill:#87ceeb;stroke:#ffffff;stroke-linejoin:miter;stroke-width:0.3;"/>
   </g>
   <g id="line2d_38">
    <path clip-path="url(#p763d194b48)" d="M 939.83215 191.9808 
L 1028.766626 191.9808 
" style="fill:none;stroke:#000000;stroke-linecap:round;stroke-width:4.0;"/>
   </g>
   <g id="patch_129">
    <path d="M 904.731429 194.4 
L 1096.045714 194.4 
" style="fill:none;"/>
   </g>
   <g id="text_29">
    <!-- 0.497 -->
    <g style="fill:#262626;" transform="translate(919.814650329 185.9328)scale(0.16 -0.16)">
     <use xlink:href="#ArialMT-30"/>
     <use x="55.615234375" xlink:href="#ArialMT-2e"/>
     <use x="83.3984375" xlink:href="#ArialMT-34"/>
     <use x="139.013671875" xlink:href="#ArialMT-39"/>
     <use x="194.62890625" xlink:href="#ArialMT-37"/>
    </g>
   </g>
   <g id="text_30">
    <!-- 0.516 -->
    <g style="fill:#262626;" transform="translate(1008.74912564 185.9328)scale(0.16 -0.16)">
     <use xlink:href="#ArialMT-30"/>
     <use x="55.615234375" xlink:href="#ArialMT-2e"/>
     <use x="83.3984375" xlink:href="#ArialMT-35"/>
     <use x="139.013671875" xlink:href="#ArialMT-31"/>
     <use x="194.62890625" xlink:href="#ArialMT-36"/>
    </g>
   </g>
   <g id="text_31">
    <!-- 95% HPD -->
    <g style="fill:#262626;" transform="translate(949.174387987 170.208)scale(0.16 -0.16)">
     <use xlink:href="#ArialMT-39"/>
     <use x="55.615234375" xlink:href="#ArialMT-35"/>
     <use x="111.23046875" xlink:href="#ArialMT-25"/>
     <use x="200.146484375" xlink:href="#ArialMT-20"/>
     <use x="227.9296875" xlink:href="#ArialMT-48"/>
     <use x="300.146484375" xlink:href="#ArialMT-50"/>
     <use x="366.845703125" xlink:href="#ArialMT-44"/>
    </g>
   </g>
   <g id="text_32">
    <!-- mean=0.506 -->
    <g style="fill:#262626;" transform="translate(937.161615558 97.632)scale(0.16 -0.16)">
     <use xlink:href="#ArialMT-6d"/>
     <use x="83.30078125" xlink:href="#ArialMT-65"/>
     <use x="138.916015625" xlink:href="#ArialMT-61"/>
     <use x="194.53125" xlink:href="#ArialMT-6e"/>
     <use x="250.146484375" xlink:href="#ArialMT-3d"/>
     <use x="308.544921875" xlink:href="#ArialMT-30"/>
     <use x="364.16015625" xlink:href="#ArialMT-2e"/>
     <use x="391.943359375" xlink:href="#ArialMT-35"/>
     <use x="447.55859375" xlink:href="#ArialMT-30"/>
     <use x="503.173828125" xlink:href="#ArialMT-36"/>
    </g>
   </g>
   <g id="text_33">
    <!-- Dropout effect -->
    <defs>
     <path d="M 6.59375 -19.875 
L 6.59375 51.859375 
L 14.59375 51.859375 
L 14.59375 45.125 
Q 17.4375 49.078125 21 51.046875 
Q 24.5625 53.03125 29.640625 53.03125 
Q 36.28125 53.03125 41.359375 49.609375 
Q 46.4375 46.1875 49.015625 39.953125 
Q 51.609375 33.734375 51.609375 26.3125 
Q 51.609375 18.359375 48.75 11.984375 
Q 45.90625 5.609375 40.453125 2.21875 
Q 35.015625 -1.171875 29 -1.171875 
Q 24.609375 -1.171875 21.109375 0.6875 
Q 17.625 2.546875 15.375 5.375 
L 15.375 -19.875 
z
M 14.546875 25.640625 
Q 14.546875 15.625 18.59375 10.84375 
Q 22.65625 6.0625 28.421875 6.0625 
Q 34.28125 6.0625 38.453125 11.015625 
Q 42.625 15.96875 42.625 26.375 
Q 42.625 36.28125 38.546875 41.203125 
Q 34.46875 46.140625 28.8125 46.140625 
Q 23.1875 46.140625 18.859375 40.890625 
Q 14.546875 35.640625 14.546875 25.640625 
" id="ArialMT-70"/>
     <path d="M 3.328125 25.921875 
Q 3.328125 40.328125 11.328125 47.265625 
Q 18.015625 53.03125 27.640625 53.03125 
Q 38.328125 53.03125 45.109375 46.015625 
Q 51.90625 39.015625 51.90625 26.65625 
Q 51.90625 16.65625 48.90625 10.90625 
Q 45.90625 5.171875 40.15625 2 
Q 34.421875 -1.171875 27.640625 -1.171875 
Q 16.75 -1.171875 10.03125 5.8125 
Q 3.328125 12.796875 3.328125 25.921875 
M 12.359375 25.921875 
Q 12.359375 15.96875 16.703125 11.015625 
Q 21.046875 6.0625 27.640625 6.0625 
Q 34.1875 6.0625 38.53125 11.03125 
Q 42.875 16.015625 42.875 26.21875 
Q 42.875 35.84375 38.5 40.796875 
Q 34.125 45.75 27.640625 45.75 
Q 21.046875 45.75 16.703125 40.8125 
Q 12.359375 35.890625 12.359375 25.921875 
" id="ArialMT-6f"/>
     <path d="M 40.578125 0 
L 40.578125 7.625 
Q 34.515625 -1.171875 24.125 -1.171875 
Q 19.53125 -1.171875 15.546875 0.578125 
Q 11.578125 2.34375 9.640625 5 
Q 7.71875 7.671875 6.9375 11.53125 
Q 6.390625 14.109375 6.390625 19.734375 
L 6.390625 51.859375 
L 15.1875 51.859375 
L 15.1875 23.09375 
Q 15.1875 16.21875 15.71875 13.8125 
Q 16.546875 10.359375 19.234375 8.375 
Q 21.921875 6.390625 25.875 6.390625 
Q 29.828125 6.390625 33.296875 8.421875 
Q 36.765625 10.453125 38.203125 13.9375 
Q 39.65625 17.4375 39.65625 24.078125 
L 39.65625 51.859375 
L 48.4375 51.859375 
L 48.4375 0 
z
" id="ArialMT-75"/>
    </defs>
    <g style="fill:#262626;" transform="translate(962.704821429 16.6)scale(0.12 -0.12)">
     <use xlink:href="#ArialMT-44"/>
     <use x="72.216796875" xlink:href="#ArialMT-72"/>
     <use x="105.517578125" xlink:href="#ArialMT-6f"/>
     <use x="161.1328125" xlink:href="#ArialMT-70"/>
     <use x="216.748046875" xlink:href="#ArialMT-6f"/>
     <use x="272.36328125" xlink:href="#ArialMT-75"/>
     <use x="327.978515625" xlink:href="#ArialMT-74"/>
     <use x="355.76171875" xlink:href="#ArialMT-20"/>
     <use x="383.544921875" xlink:href="#ArialMT-65"/>
     <use x="439.16015625" xlink:href="#ArialMT-66"/>
     <use x="466.927734375" xlink:href="#ArialMT-66"/>
     <use x="494.7109375" xlink:href="#ArialMT-65"/>
     <use x="550.326171875" xlink:href="#ArialMT-63"/>
     <use x="600.326171875" xlink:href="#ArialMT-74"/>
    </g>
   </g>
  </g>
  <g id="axes_5">
   <g id="patch_130">
    <path d="M 1134.308571 194.4 
L 1325.622857 194.4 
L 1325.622857 21.6 
L 1134.308571 21.6 
z
" style="fill:#eaeaf2;"/>
   </g>
   <g id="matplotlib.axis_9">
    <g id="xtick_14">
     <g id="line2d_39">
      <path clip-path="url(#pd6dca8f7b7)" d="M 1134.308571 194.4 
L 1134.308571 21.6 
" style="fill:none;stroke:#ffffff;stroke-linecap:round;"/>
     </g>
     <g id="line2d_40">
      <g>
       <use style="fill:#808080;stroke:#808080;" x="1134.30857143" xlink:href="#me142d4c474" y="194.4"/>
      </g>
     </g>
     <g id="text_34">
      <!-- 0.48 -->
      <g style="fill:#262626;" transform="translate(1124.57810268 208.5578125)scale(0.1 -0.1)">
       <use xlink:href="#ArialMT-30"/>
       <use x="55.615234375" xlink:href="#ArialMT-2e"/>
       <use x="83.3984375" xlink:href="#ArialMT-34"/>
       <use x="139.013671875" xlink:href="#ArialMT-38"/>
      </g>
     </g>
    </g>
    <g id="xtick_15">
     <g id="line2d_41">
      <path clip-path="url(#pd6dca8f7b7)" d="M 1229.965714 194.4 
L 1229.965714 21.6 
" style="fill:none;stroke:#ffffff;stroke-linecap:round;"/>
     </g>
     <g id="line2d_42">
      <g>
       <use style="fill:#808080;stroke:#808080;" x="1229.96571429" xlink:href="#me142d4c474" y="194.4"/>
      </g>
     </g>
     <g id="text_35">
      <!-- 0.50 -->
      <g style="fill:#262626;" transform="translate(1220.23524554 208.5578125)scale(0.1 -0.1)">
       <use xlink:href="#ArialMT-30"/>
       <use x="55.615234375" xlink:href="#ArialMT-2e"/>
       <use x="83.3984375" xlink:href="#ArialMT-35"/>
       <use x="139.013671875" xlink:href="#ArialMT-30"/>
      </g>
     </g>
    </g>
    <g id="xtick_16">
     <g id="line2d_43">
      <path clip-path="url(#pd6dca8f7b7)" d="M 1325.622857 194.4 
L 1325.622857 21.6 
" style="fill:none;stroke:#ffffff;stroke-linecap:round;"/>
     </g>
     <g id="line2d_44">
      <g>
       <use style="fill:#808080;stroke:#808080;" x="1325.62285714" xlink:href="#me142d4c474" y="194.4"/>
      </g>
     </g>
     <g id="text_36">
      <!-- 0.52 -->
      <g style="fill:#262626;" transform="translate(1315.89238839 208.5578125)scale(0.1 -0.1)">
       <use xlink:href="#ArialMT-30"/>
       <use x="55.615234375" xlink:href="#ArialMT-2e"/>
       <use x="83.3984375" xlink:href="#ArialMT-35"/>
       <use x="139.013671875" xlink:href="#ArialMT-32"/>
      </g>
     </g>
    </g>
   </g>
   <g id="matplotlib.axis_10">
    <g id="ytick_9">
     <g id="line2d_45">
      <path clip-path="url(#pd6dca8f7b7)" d="M 1134.308571 194.4 
L 1325.622857 194.4 
" style="fill:none;stroke:#ffffff;stroke-linecap:round;"/>
     </g>
    </g>
    <g id="ytick_10">
     <g id="line2d_46">
      <path clip-path="url(#pd6dca8f7b7)" d="M 1134.308571 21.6 
L 1325.622857 21.6 
" style="fill:none;stroke:#ffffff;stroke-linecap:round;"/>
     </g>
    </g>
   </g>
   <g id="patch_131">
    <path clip-path="url(#pd6dca8f7b7)" d="M 1150.355509 194.4 
L 1155.681335 194.4 
L 1155.681335 193.3632 
L 1150.355509 193.3632 
z
" style="fill:#87ceeb;stroke:#ffffff;stroke-linejoin:miter;stroke-width:0.3;"/>
   </g>
   <g id="patch_132">
    <path clip-path="url(#pd6dca8f7b7)" d="M 1155.681335 194.4 
L 1161.007161 194.4 
L 1161.007161 194.0544 
L 1155.681335 194.0544 
z
" style="fill:#87ceeb;stroke:#ffffff;stroke-linejoin:miter;stroke-width:0.3;"/>
   </g>
   <g id="patch_133">
    <path clip-path="url(#pd6dca8f7b7)" d="M 1161.007161 194.4 
L 1166.332987 194.4 
L 1166.332987 193.3632 
L 1161.007161 193.3632 
z
" style="fill:#87ceeb;stroke:#ffffff;stroke-linejoin:miter;stroke-width:0.3;"/>
   </g>
   <g id="patch_134">
    <path clip-path="url(#pd6dca8f7b7)" d="M 1166.332987 194.4 
L 1171.658813 194.4 
L 1171.658813 192.3264 
L 1166.332987 192.3264 
z
" style="fill:#87ceeb;stroke:#ffffff;stroke-linejoin:miter;stroke-width:0.3;"/>
   </g>
   <g id="patch_135">
    <path clip-path="url(#pd6dca8f7b7)" d="M 1171.658813 194.4 
L 1176.984639 194.4 
L 1176.984639 191.6352 
L 1171.658813 191.6352 
z
" style="fill:#87ceeb;stroke:#ffffff;stroke-linejoin:miter;stroke-width:0.3;"/>
   </g>
   <g id="patch_136">
    <path clip-path="url(#pd6dca8f7b7)" d="M 1176.984639 194.4 
L 1182.310466 194.4 
L 1182.310466 188.5248 
L 1176.984639 188.5248 
z
" style="fill:#87ceeb;stroke:#ffffff;stroke-linejoin:miter;stroke-width:0.3;"/>
   </g>
   <g id="patch_137">
    <path clip-path="url(#pd6dca8f7b7)" d="M 1182.310466 194.4 
L 1187.636292 194.4 
L 1187.636292 186.1056 
L 1182.310466 186.1056 
z
" style="fill:#87ceeb;stroke:#ffffff;stroke-linejoin:miter;stroke-width:0.3;"/>
   </g>
   <g id="patch_138">
    <path clip-path="url(#pd6dca8f7b7)" d="M 1187.636292 194.4 
L 1192.962118 194.4 
L 1192.962118 180.2304 
L 1187.636292 180.2304 
z
" style="fill:#87ceeb;stroke:#ffffff;stroke-linejoin:miter;stroke-width:0.3;"/>
   </g>
   <g id="patch_139">
    <path clip-path="url(#pd6dca8f7b7)" d="M 1192.962118 194.4 
L 1198.287944 194.4 
L 1198.287944 168.48 
L 1192.962118 168.48 
z
" style="fill:#87ceeb;stroke:#ffffff;stroke-linejoin:miter;stroke-width:0.3;"/>
   </g>
   <g id="patch_140">
    <path clip-path="url(#pd6dca8f7b7)" d="M 1198.287944 194.4 
L 1203.61377 194.4 
L 1203.61377 151.5456 
L 1198.287944 151.5456 
z
" style="fill:#87ceeb;stroke:#ffffff;stroke-linejoin:miter;stroke-width:0.3;"/>
   </g>
   <g id="patch_141">
    <path clip-path="url(#pd6dca8f7b7)" d="M 1203.61377 194.4 
L 1208.939596 194.4 
L 1208.939596 133.2288 
L 1203.61377 133.2288 
z
" style="fill:#87ceeb;stroke:#ffffff;stroke-linejoin:miter;stroke-width:0.3;"/>
   </g>
   <g id="patch_142">
    <path clip-path="url(#pd6dca8f7b7)" d="M 1208.939596 194.4 
L 1214.265422 194.4 
L 1214.265422 125.6256 
L 1208.939596 125.6256 
z
" style="fill:#87ceeb;stroke:#ffffff;stroke-linejoin:miter;stroke-width:0.3;"/>
   </g>
   <g id="patch_143">
    <path clip-path="url(#pd6dca8f7b7)" d="M 1214.265422 194.4 
L 1219.591248 194.4 
L 1219.591248 98.3232 
L 1214.265422 98.3232 
z
" style="fill:#87ceeb;stroke:#ffffff;stroke-linejoin:miter;stroke-width:0.3;"/>
   </g>
   <g id="patch_144">
    <path clip-path="url(#pd6dca8f7b7)" d="M 1219.591248 194.4 
L 1224.917074 194.4 
L 1224.917074 66.1824 
L 1219.591248 66.1824 
z
" style="fill:#87ceeb;stroke:#ffffff;stroke-linejoin:miter;stroke-width:0.3;"/>
   </g>
   <g id="patch_145">
    <path clip-path="url(#pd6dca8f7b7)" d="M 1224.917074 194.4 
L 1230.2429 194.4 
L 1230.2429 66.8736 
L 1224.917074 66.8736 
z
" style="fill:#87ceeb;stroke:#ffffff;stroke-linejoin:miter;stroke-width:0.3;"/>
   </g>
   <g id="patch_146">
    <path clip-path="url(#pd6dca8f7b7)" d="M 1230.2429 194.4 
L 1235.568726 194.4 
L 1235.568726 47.52 
L 1230.2429 47.52 
z
" style="fill:#87ceeb;stroke:#ffffff;stroke-linejoin:miter;stroke-width:0.3;"/>
   </g>
   <g id="patch_147">
    <path clip-path="url(#pd6dca8f7b7)" d="M 1235.568726 194.4 
L 1240.894552 194.4 
L 1240.894552 43.3728 
L 1235.568726 43.3728 
z
" style="fill:#87ceeb;stroke:#ffffff;stroke-linejoin:miter;stroke-width:0.3;"/>
   </g>
   <g id="patch_148">
    <path clip-path="url(#pd6dca8f7b7)" d="M 1240.894552 194.4 
L 1246.220378 194.4 
L 1246.220378 64.1088 
L 1240.894552 64.1088 
z
" style="fill:#87ceeb;stroke:#ffffff;stroke-linejoin:miter;stroke-width:0.3;"/>
   </g>
   <g id="patch_149">
    <path clip-path="url(#pd6dca8f7b7)" d="M 1246.220378 194.4 
L 1251.546204 194.4 
L 1251.546204 101.7792 
L 1246.220378 101.7792 
z
" style="fill:#87ceeb;stroke:#ffffff;stroke-linejoin:miter;stroke-width:0.3;"/>
   </g>
   <g id="patch_150">
    <path clip-path="url(#pd6dca8f7b7)" d="M 1251.546204 194.4 
L 1256.87203 194.4 
L 1256.87203 123.2064 
L 1251.546204 123.2064 
z
" style="fill:#87ceeb;stroke:#ffffff;stroke-linejoin:miter;stroke-width:0.3;"/>
   </g>
   <g id="patch_151">
    <path clip-path="url(#pd6dca8f7b7)" d="M 1256.87203 194.4 
L 1262.197857 194.4 
L 1262.197857 131.8464 
L 1256.87203 131.8464 
z
" style="fill:#87ceeb;stroke:#ffffff;stroke-linejoin:miter;stroke-width:0.3;"/>
   </g>
   <g id="patch_152">
    <path clip-path="url(#pd6dca8f7b7)" d="M 1262.197857 194.4 
L 1267.523683 194.4 
L 1267.523683 139.7952 
L 1262.197857 139.7952 
z
" style="fill:#87ceeb;stroke:#ffffff;stroke-linejoin:miter;stroke-width:0.3;"/>
   </g>
   <g id="patch_153">
    <path clip-path="url(#pd6dca8f7b7)" d="M 1267.523683 194.4 
L 1272.849509 194.4 
L 1272.849509 158.8032 
L 1267.523683 158.8032 
z
" style="fill:#87ceeb;stroke:#ffffff;stroke-linejoin:miter;stroke-width:0.3;"/>
   </g>
   <g id="patch_154">
    <path clip-path="url(#pd6dca8f7b7)" d="M 1272.849509 194.4 
L 1278.175335 194.4 
L 1278.175335 174.7008 
L 1272.849509 174.7008 
z
" style="fill:#87ceeb;stroke:#ffffff;stroke-linejoin:miter;stroke-width:0.3;"/>
   </g>
   <g id="patch_155">
    <path clip-path="url(#pd6dca8f7b7)" d="M 1278.175335 194.4 
L 1283.501161 194.4 
L 1283.501161 179.5392 
L 1278.175335 179.5392 
z
" style="fill:#87ceeb;stroke:#ffffff;stroke-linejoin:miter;stroke-width:0.3;"/>
   </g>
   <g id="patch_156">
    <path clip-path="url(#pd6dca8f7b7)" d="M 1283.501161 194.4 
L 1288.826987 194.4 
L 1288.826987 187.488 
L 1283.501161 187.488 
z
" style="fill:#87ceeb;stroke:#ffffff;stroke-linejoin:miter;stroke-width:0.3;"/>
   </g>
   <g id="patch_157">
    <path clip-path="url(#pd6dca8f7b7)" d="M 1288.826987 194.4 
L 1294.152813 194.4 
L 1294.152813 190.2528 
L 1288.826987 190.2528 
z
" style="fill:#87ceeb;stroke:#ffffff;stroke-linejoin:miter;stroke-width:0.3;"/>
   </g>
   <g id="patch_158">
    <path clip-path="url(#pd6dca8f7b7)" d="M 1294.152813 194.4 
L 1299.478639 194.4 
L 1299.478639 191.2896 
L 1294.152813 191.2896 
z
" style="fill:#87ceeb;stroke:#ffffff;stroke-linejoin:miter;stroke-width:0.3;"/>
   </g>
   <g id="patch_159">
    <path clip-path="url(#pd6dca8f7b7)" d="M 1299.478639 194.4 
L 1304.804465 194.4 
L 1304.804465 192.3264 
L 1299.478639 192.3264 
z
" style="fill:#87ceeb;stroke:#ffffff;stroke-linejoin:miter;stroke-width:0.3;"/>
   </g>
   <g id="patch_160">
    <path clip-path="url(#pd6dca8f7b7)" d="M 1304.804465 194.4 
L 1310.130291 194.4 
L 1310.130291 193.7088 
L 1304.804465 193.7088 
z
" style="fill:#87ceeb;stroke:#ffffff;stroke-linejoin:miter;stroke-width:0.3;"/>
   </g>
   <g id="line2d_47">
    <path clip-path="url(#pd6dca8f7b7)" d="M 1191.319468 191.2896 
L 1274.798717 191.2896 
" style="fill:none;stroke:#000000;stroke-linecap:round;stroke-width:4.0;"/>
   </g>
   <g id="patch_161">
    <path d="M 1134.308571 194.4 
L 1325.622857 194.4 
" style="fill:none;"/>
   </g>
   <g id="text_37">
    <!-- 0.492 -->
    <g style="fill:#262626;" transform="translate(1171.30196792 183.5136)scale(0.16 -0.16)">
     <use xlink:href="#ArialMT-30"/>
     <use x="55.615234375" xlink:href="#ArialMT-2e"/>
     <use x="83.3984375" xlink:href="#ArialMT-34"/>
     <use x="139.013671875" xlink:href="#ArialMT-39"/>
     <use x="194.62890625" xlink:href="#ArialMT-32"/>
    </g>
   </g>
   <g id="text_38">
    <!-- 0.509 -->
    <g style="fill:#262626;" transform="translate(1254.78121729 183.5136)scale(0.16 -0.16)">
     <use xlink:href="#ArialMT-30"/>
     <use x="55.615234375" xlink:href="#ArialMT-2e"/>
     <use x="83.3984375" xlink:href="#ArialMT-35"/>
     <use x="139.013671875" xlink:href="#ArialMT-30"/>
     <use x="194.62890625" xlink:href="#ArialMT-39"/>
    </g>
   </g>
   <g id="text_39">
    <!-- 95% HPD -->
    <g style="fill:#262626;" transform="translate(1197.9340926 163.296)scale(0.16 -0.16)">
     <use xlink:href="#ArialMT-39"/>
     <use x="55.615234375" xlink:href="#ArialMT-35"/>
     <use x="111.23046875" xlink:href="#ArialMT-25"/>
     <use x="200.146484375" xlink:href="#ArialMT-20"/>
     <use x="227.9296875" xlink:href="#ArialMT-48"/>
     <use x="300.146484375" xlink:href="#ArialMT-50"/>
     <use x="366.845703125" xlink:href="#ArialMT-44"/>
    </g>
   </g>
   <g id="text_40">
    <!-- mean=0.5 -->
    <g style="fill:#262626;" transform="translate(1195.65642626 69.984)scale(0.16 -0.16)">
     <use xlink:href="#ArialMT-6d"/>
     <use x="83.30078125" xlink:href="#ArialMT-65"/>
     <use x="138.916015625" xlink:href="#ArialMT-61"/>
     <use x="194.53125" xlink:href="#ArialMT-6e"/>
     <use x="250.146484375" xlink:href="#ArialMT-3d"/>
     <use x="308.544921875" xlink:href="#ArialMT-30"/>
     <use x="364.16015625" xlink:href="#ArialMT-2e"/>
     <use x="391.943359375" xlink:href="#ArialMT-35"/>
    </g>
   </g>
   <g id="text_41">
    <!-- OneSample effect -->
    <defs>
     <path d="M 4.828125 34.859375 
Q 4.828125 52.6875 14.390625 62.765625 
Q 23.96875 72.859375 39.109375 72.859375 
Q 49.03125 72.859375 56.984375 68.109375 
Q 64.9375 63.375 69.109375 54.90625 
Q 73.296875 46.4375 73.296875 35.6875 
Q 73.296875 24.8125 68.890625 16.21875 
Q 64.5 7.625 56.4375 3.203125 
Q 48.390625 -1.21875 39.0625 -1.21875 
Q 28.953125 -1.21875 20.984375 3.65625 
Q 13.03125 8.546875 8.921875 16.984375 
Q 4.828125 25.4375 4.828125 34.859375 
M 14.59375 34.71875 
Q 14.59375 21.78125 21.546875 14.328125 
Q 28.515625 6.890625 39.015625 6.890625 
Q 49.703125 6.890625 56.609375 14.40625 
Q 63.53125 21.921875 63.53125 35.75 
Q 63.53125 44.484375 60.578125 51 
Q 57.625 57.515625 51.921875 61.109375 
Q 46.234375 64.703125 39.15625 64.703125 
Q 29.109375 64.703125 21.84375 57.78125 
Q 14.59375 50.875 14.59375 34.71875 
" id="ArialMT-4f"/>
     <path d="M 4.5 23 
L 13.421875 23.78125 
Q 14.0625 18.40625 16.375 14.96875 
Q 18.703125 11.53125 23.578125 9.40625 
Q 28.46875 7.28125 34.578125 7.28125 
Q 39.984375 7.28125 44.140625 8.890625 
Q 48.296875 10.5 50.3125 13.296875 
Q 52.34375 16.109375 52.34375 19.4375 
Q 52.34375 22.796875 50.390625 25.3125 
Q 48.4375 27.828125 43.953125 29.546875 
Q 41.0625 30.671875 31.203125 33.03125 
Q 21.34375 35.40625 17.390625 37.5 
Q 12.25 40.1875 9.734375 44.15625 
Q 7.234375 48.140625 7.234375 53.078125 
Q 7.234375 58.5 10.296875 63.203125 
Q 13.375 67.921875 19.28125 70.359375 
Q 25.203125 72.796875 32.421875 72.796875 
Q 40.375 72.796875 46.453125 70.234375 
Q 52.546875 67.671875 55.8125 62.6875 
Q 59.078125 57.71875 59.328125 51.421875 
L 50.25 50.734375 
Q 49.515625 57.515625 45.28125 60.984375 
Q 41.0625 64.453125 32.8125 64.453125 
Q 24.21875 64.453125 20.28125 61.296875 
Q 16.359375 58.15625 16.359375 53.71875 
Q 16.359375 49.859375 19.140625 47.359375 
Q 21.875 44.875 33.421875 42.265625 
Q 44.96875 39.65625 49.265625 37.703125 
Q 55.515625 34.8125 58.484375 30.390625 
Q 61.46875 25.984375 61.46875 20.21875 
Q 61.46875 14.5 58.203125 9.4375 
Q 54.9375 4.390625 48.796875 1.578125 
Q 42.671875 -1.21875 35.015625 -1.21875 
Q 25.296875 -1.21875 18.71875 1.609375 
Q 12.15625 4.4375 8.421875 10.125 
Q 4.6875 15.828125 4.5 23 
" id="ArialMT-53"/>
    </defs>
    <g style="fill:#262626;" transform="translate(1181.94321429 16.6)scale(0.12 -0.12)">
     <use xlink:href="#ArialMT-4f"/>
     <use x="77.783203125" xlink:href="#ArialMT-6e"/>
     <use x="133.3984375" xlink:href="#ArialMT-65"/>
     <use x="189.013671875" xlink:href="#ArialMT-53"/>
     <use x="255.712890625" xlink:href="#ArialMT-61"/>
     <use x="311.328125" xlink:href="#ArialMT-6d"/>
     <use x="394.62890625" xlink:href="#ArialMT-70"/>
     <use x="450.244140625" xlink:href="#ArialMT-6c"/>
     <use x="472.4609375" xlink:href="#ArialMT-65"/>
     <use x="528.076171875" xlink:href="#ArialMT-20"/>
     <use x="555.859375" xlink:href="#ArialMT-65"/>
     <use x="611.474609375" xlink:href="#ArialMT-66"/>
     <use x="639.2421875" xlink:href="#ArialMT-66"/>
     <use x="667.025390625" xlink:href="#ArialMT-65"/>
     <use x="722.640625" xlink:href="#ArialMT-63"/>
     <use x="772.640625" xlink:href="#ArialMT-74"/>
    </g>
   </g>
  </g>
 </g>
 <defs>
  <clipPath id="p5da6ff3af7">
   <rect height="172.8" width="191.314285714" x="675.154285714" y="21.6"/>
  </clipPath>
  <clipPath id="pd6dca8f7b7">
   <rect height="172.8" width="191.314285714" x="1134.30857143" y="21.6"/>
  </clipPath>
  <clipPath id="p2add480031">
   <rect height="172.8" width="191.314285714" x="216.0" y="21.6"/>
  </clipPath>
  <clipPath id="pe73f787406">
   <rect height="172.8" width="191.314285714" x="445.577142857" y="21.6"/>
  </clipPath>
  <clipPath id="p763d194b48">
   <rect height="172.8" width="191.314285714" x="904.731428571" y="21.6"/>
  </clipPath>
 </defs>
</svg>
